SplineFontDB: 3.0
FontName: NadiaSerifNormal_BK
FullName: Nadia Serif Normal BK
FamilyName: Nadia Serif BK
Weight: Normal
Copyright: (c) 1999 nadia knechtle. OSP modified - December 2012
Version: Macromedia Fontographer 4.1.3 09.07.2002
ItalicAngle: 0
UnderlinePosition: -123
UnderlineWidth: 20
Ascent: 800
Descent: 200
sfntRevision: 0x00010000
LayerCount: 2
Layer: 0 1 "Back"  1
Layer: 1 1 "Fore"  0
XUID: [1021 619 1067718245 2553678]
FSType: 1
OS2Version: 0
OS2_WeightWidthSlopeOnly: 0
OS2_UseTypoMetrics: 1
CreationTime: 1026230984
ModificationTime: 1356085742
PfmFamily: 81
TTFWeight: 400
TTFWidth: 5
LineGap: 0
VLineGap: 0
Panose: 0 0 4 0 0 0 0 0 0 0
OS2TypoAscent: 879
OS2TypoAOffset: 0
OS2TypoDescent: -243
OS2TypoDOffset: 0
OS2TypoLinegap: 0
OS2WinAscent: 879
OS2WinAOffset: 0
OS2WinDescent: 243
OS2WinDOffset: 0
HheadAscent: 879
HheadAOffset: 0
HheadDescent: -243
HheadDOffset: 0
OS2SubXSize: 700
OS2SubYSize: 650
OS2SubXOff: 0
OS2SubYOff: 143
OS2SupXSize: 700
OS2SupYSize: 650
OS2SupXOff: 0
OS2SupYOff: 453
OS2StrikeYSize: 50
OS2StrikeYPos: 259
OS2Vendor: 'DaMa'
OS2UnicodeRanges: 00000000.00000000.00000000.00000000
Lookup: 258 0 0 "'kern' Horizontal Kerning in Latin lookup 0"  {"'kern' Horizontal Kerning in Latin lookup 0 subtable"  } ['kern' ('DFLT' <'dflt' > 'latn' <'dflt' > ) ]
MarkAttachClasses: 1
DEI: 91125
TtTable: prep
NPUSHB
 21
 13
 13
 12
 12
 11
 11
 10
 10
 9
 9
 8
 8
 3
 3
 2
 2
 1
 1
 0
 0
 1
SCANTYPE
PUSHW_1
 511
SCANCTRL
RCVT
ROUND[Grey]
WCVTP
RCVT
ROUND[Grey]
WCVTP
RCVT
ROUND[Grey]
WCVTP
RCVT
ROUND[Grey]
WCVTP
RCVT
ROUND[Grey]
WCVTP
RCVT
ROUND[Grey]
WCVTP
RCVT
ROUND[Grey]
WCVTP
RCVT
ROUND[Grey]
WCVTP
RCVT
ROUND[Grey]
WCVTP
RCVT
ROUND[Grey]
WCVTP
PUSHB_4
 5
 4
 70
 0
CALL
PUSHB_4
 7
 6
 70
 0
CALL
PUSHB_2
 4
 4
RCVT
ROUND[Grey]
WCVTP
PUSHB_2
 6
 6
RCVT
ROUND[Grey]
WCVTP
EndTTInstrs
TtTable: fpgm
NPUSHB
 1
 0
FDEF
SROUND
RCVT
DUP
PUSHB_1
 3
CINDEX
RCVT
SWAP
SUB
ROUND[Grey]
RTG
SWAP
ROUND[Grey]
ADD
WCVTP
ENDF
EndTTInstrs
ShortTable: cvt  301
  -238
  -7

StartChar: .notdef
Encoding: 65536 -1 0
Width: 500
Flags: W
LayerCount: 2
Fore
SplineSet
63 0 m 1,0,-1
 63 760 l 1,1,-1
 438 760 l 1,2,-1
 438 0 l 1,3,-1
 63 0 l 1,0,-1
125 63 m 1,4,-1
 375 63 l 1,5,-1
 375 698 l 1,6,-1
 125 698 l 1,7,-1
 125 63 l 1,4,-1
EndSplineSet
Validated: 1
EndChar

StartChar: exclam
Encoding: 33 33 4
Width: 215
Flags: W
LayerCount: 2
Fore
SplineSet
173 721 m 2,0,-1
 158 268 l 1,1,2
 142 240 142 240 129 240 c 0,3,4
 105 240 105 240 100 269 c 1,5,-1
 85 721 l 2,6,7
 85 734 85 734 99 734 c 2,8,-1
 158 734 l 2,9,10
 173 734 173 734 173 721 c 2,0,-1
189 56 m 256,11,12
 189 31 189 31 171.5 13.5 c 128,-1,13
 154 -4 154 -4 129 -4 c 256,14,15
 104 -4 104 -4 86.5 13.5 c 128,-1,16
 69 31 69 31 69 56 c 256,17,18
 69 81 69 81 86.5 98.5 c 128,-1,19
 104 116 104 116 129 116 c 256,20,21
 154 116 154 116 171.5 98.5 c 128,-1,22
 189 81 189 81 189 56 c 256,11,12
EndSplineSet
Validated: 1
EndChar

StartChar: percent
Encoding: 37 37 5
Width: 786
Flags: W
LayerCount: 2
Fore
SplineSet
317 576 m 0,0,1
 317 493 317 493 278 451 c 0,2,3
 245 416 245 416 192 416 c 256,4,5
 139 416 139 416 105 451 c 0,6,7
 65 493 65 493 65 576 c 0,8,9
 65 655 65 655 109 698 c 0,10,11
 145 733 145 733 192 733 c 0,12,13
 238 733 238 733 273 698 c 0,14,15
 317 655 317 655 317 576 c 0,0,1
531 717 m 1,16,17
 543 733 543 733 559 733 c 0,18,19
 565 733 565 733 571 730 c 0,20,21
 592 722 592 722 592 694 c 1,22,-1
 262 10 l 1,23,24
 247 -8 247 -8 231 -8 c 0,25,26
 225 -8 225 -8 220 -6 c 0,27,28
 199 3 199 3 201 33 c 1,29,-1
 531 717 l 1,30,-1
 531 717 l 1,16,17
721 149 m 0,31,32
 721 66 721 66 681 25 c 1,33,34
 648 -11 648 -11 595 -11 c 256,35,36
 542 -11 542 -11 508 25 c 0,37,38
 468 66 468 66 468 149 c 0,39,40
 468 229 468 229 513 272 c 0,41,42
 548 306 548 306 595 306 c 256,43,44
 642 306 642 306 677 272 c 0,45,46
 721 229 721 229 721 149 c 0,31,32
256 575 m 0,47,48
 256 627 256 627 232 654 c 0,49,50
 214 674 214 674 191 674 c 0,51,52
 166 674 166 674 149 654 c 1,53,54
 125 628 125 628 125 575 c 0,55,56
 125 474 125 474 190 474 c 0,57,58
 256 474 256 474 256 575 c 0,47,48
660 149 m 0,59,60
 660 200 660 200 636 227 c 0,61,62
 617 248 617 248 595 248 c 0,63,64
 570 248 570 248 552 228 c 0,65,66
 529 202 529 202 529 148 c 0,67,68
 529 48 529 48 594 48 c 0,69,70
 660 48 660 48 660 149 c 0,59,60
EndSplineSet
Validated: 37
EndChar

StartChar: ampersand
Encoding: 38 38 6
Width: 582
Flags: W
LayerCount: 2
Fore
SplineSet
582 28 m 0,0,1
 582 23 582 23 578 20 c 2,2,-1
 550 -5 l 1,3,4
 542 -10 542 -10 541 -10 c 0,5,6
 533 -10 533 -10 529 -5 c 2,7,-1
 466 69 l 1,8,9
 369 -11 369 -11 266 -11 c 0,10,11
 175 -11 175 -11 115 37 c 0,12,13
 50 89 50 89 50 178 c 0,14,15
 50 259 50 259 112 324 c 0,16,17
 134 348 134 348 197 391 c 1,18,-1
 197 391 l 1,19,20
 134 467 134 467 131 471 c 0,21,22
 98 520 98 520 98 569 c 0,23,24
 98 655 98 655 159 700 c 0,25,26
 209 738 209 738 284 738 c 0,27,28
 342 738 342 738 389 697 c 1,29,30
 443 652 443 652 443 583 c 0,31,32
 443 509 443 509 383 445 c 0,33,34
 356 415 356 415 295 374 c 1,35,-1
 468 167 l 1,36,37
 516 241 516 241 516 300 c 1,38,-1
 516 300 l 1,39,-1
 516 314 l 2,40,41
 516 326 516 326 528 326 c 2,42,-1
 569 326 l 2,43,44
 581 326 581 326 581 309 c 0,45,46
 581 213 581 213 512 118 c 1,47,-1
 578 36 l 2,48,49
 582 30 582 30 582 28 c 0,0,1
380 582 m 0,50,51
 380 628 380 628 345 657 c 0,52,53
 315 682 315 682 274 682 c 256,54,55
 233 682 233 682 201 656 c 0,56,57
 164 627 164 627 164 582 c 0,58,59
 164 538 164 538 204 481 c 0,60,61
 211 472 211 472 254 422 c 1,62,63
 319 468 319 468 329 478 c 0,64,65
 380 527 380 527 380 582 c 0,50,51
425 116 m 1,66,-1
 235 346 l 1,67,68
 214 331 214 331 194 317 c 1,69,70
 161 291 161 291 142 264 c 0,71,72
 117 227 117 227 117 185 c 0,73,74
 117 125 117 125 162.5 88 c 128,-1,75
 208 51 208 51 276 51 c 0,76,77
 349 51 349 51 425 116 c 1,66,-1
271 244 m 0,78,-1
EndSplineSet
Validated: 5
EndChar

StartChar: parenleft
Encoding: 40 40 7
Width: 282
Flags: W
LayerCount: 2
Fore
SplineSet
261 770 m 1,0,1
 258 765 258 765 249 755 c 0,2,3
 187 679 187 679 161 625 c 0,4,5
 102 505 102 505 102 347 c 0,6,7
 102 235 102 235 146 112.5 c 128,-1,8
 190 -10 190 -10 254 -75 c 0,9,10
 263 -85 263 -85 252 -90 c 2,11,-1
 221 -105 l 2,12,13
 210 -111 210 -111 203 -102 c 1,14,15
 148 -54 148 -54 99 49 c 0,16,17
 30 191 30 191 30 348 c 256,18,19
 30 505 30 505 101 649 c 0,20,21
 153 753 153 753 208 800 c 1,22,23
 218 807 218 807 227 803 c 2,24,-1
 257 788 l 2,25,26
 271 781 271 781 261 770 c 1,0,1
EndSplineSet
Validated: 1
EndChar

StartChar: parenright
Encoding: 41 41 8
Width: 282
Flags: W
LayerCount: 2
Fore
SplineSet
261 348 m 256,0,1
 261 191 261 191 192 49 c 0,2,3
 143 -54 143 -54 88 -102 c 1,4,5
 81 -111 81 -111 69 -105 c 2,6,-1
 39 -90 l 2,7,8
 27 -85 27 -85 37 -75 c 0,9,10
 105 -6 105 -6 148 122 c 0,11,12
 189 241 189 241 189 347 c 0,13,14
 189 470 189 470 153 571 c 0,15,16
 127 643 127 643 81 705 c 1,17,18
 56 737 56 737 30 770 c 1,19,20
 20 781 20 781 33 788 c 2,21,-1
 64 803 l 2,22,23
 73 807 73 807 82 800 c 0,24,25
 138 753 138 753 190 649 c 0,26,27
 261 505 261 505 261 348 c 256,0,1
EndSplineSet
Validated: 1
EndChar

StartChar: asterisk
Encoding: 42 42 9
Width: 500
Flags: W
LayerCount: 2
Fore
SplineSet
413 550 m 0,0,1
 413 545 413 545 402 541 c 2,2,-1
 289 509 l 1,3,-1
 362 416 l 1,4,5
 367 406 367 406 367 407 c 1,6,7
 367 403 367 403 359 397 c 2,8,-1
 334 377 l 2,9,10
 329 373 329 373 324 373 c 0,11,12
 320 373 320 373 315 381 c 2,13,-1
 250 481 l 1,14,-1
 185 384 l 2,15,16
 180 376 180 376 176 376 c 0,17,18
 171 376 171 376 166 380 c 2,19,-1
 142 398 l 2,20,21
 134 404 134 404 134 408 c 1,22,23
 134 407 134 407 139 417 c 1,24,-1
 211 509 l 1,25,-1
 99 539 l 1,26,27
 88 543 88 543 88 548 c 0,28,29
 88 550 88 550 91 559 c 2,30,-1
 99 587 l 2,31,32
 102 598 102 598 108 598 c 0,33,34
 109 598 109 598 117 595 c 2,35,-1
 226 554 l 1,36,-1
 222 655 l 2,37,38
 221 680 221 680 221 674 c 1,39,40
 221 685 221 685 231 685 c 2,41,-1
 269 685 l 2,42,43
 279 685 279 685 279 674 c 1,44,45
 279 680 279 680 278 655 c 2,46,-1
 274 554 l 1,47,-1
 382 594 l 2,48,49
 390 597 390 597 391 597 c 0,50,51
 396 597 396 597 400 586 c 2,52,-1
 410 561 l 2,53,54
 412 557 412 557 413 550 c 0,0,1
EndSplineSet
Validated: 5
EndChar

StartChar: plus
Encoding: 43 43 10
Width: 369
Flags: W
LayerCount: 2
Fore
SplineSet
345 310 m 1,0,1
 373 306 373 306 373 282 c 0,2,3
 373 257 373 257 345 254 c 1,4,-1
 237 254 l 1,5,-1
 237 148 l 1,6,7
 239 137 239 137 230 128 c 128,-1,8
 221 119 221 119 210 119 c 256,9,10
 199 119 199 119 190 127 c 128,-1,11
 181 135 181 135 181 146 c 2,12,-1
 181 254 l 1,13,-1
 74 254 l 2,14,15
 64 254 64 254 55 262.5 c 128,-1,16
 46 271 46 271 46 282 c 0,17,18
 46 306 46 306 74 310 c 1,19,-1
 181 310 l 1,20,-1
 181 419 l 2,21,22
 181 446 181 446 209 446 c 256,23,24
 237 446 237 446 238 419 c 1,25,-1
 238 310 l 1,26,-1
 345 310 l 1,27,-1
 345 310 l 1,0,1
EndSplineSet
Validated: 5
EndChar

StartChar: comma
Encoding: 44 44 11
Width: 215
Flags: W
LayerCount: 2
Fore
SplineSet
197 45 m 0,0,1
 194 -43 194 -43 117 -89 c 1,2,3
 95 -100 95 -100 88 -97 c 0,4,5
 79 -93 79 -93 91 -83 c 0,6,7
 141 -43 141 -43 145 -4 c 1,8,9
 141 -6 141 -6 123 -7 c 1,10,11
 99 -4 99 -4 86 14 c 128,-1,12
 73 32 73 32 75 57 c 0,13,14
 78 82 78 82 97.5 97.5 c 128,-1,15
 117 113 117 113 141 111 c 0,16,17
 165 108 165 108 181.5 88.5 c 128,-1,18
 198 69 198 69 197 45 c 0,0,1
EndSplineSet
Validated: 33
EndChar

StartChar: hyphen
Encoding: 45 45 12
AltUni2: 002010.ffffffff.0
Width: 399
Flags: W
LayerCount: 2
Fore
SplineSet
331 310 m 1,0,1
 359 306 359 306 359 282 c 0,2,3
 359 259 359 259 331 254 c 1,4,-1
 68 254 l 1,5,6
 40 259 40 259 40 282 c 0,7,8
 40 306 40 306 68 310 c 1,9,-1
 331 310 l 1,10,-1
 331 310 l 1,0,1
EndSplineSet
Validated: 5
EndChar

StartChar: period
Encoding: 46 46 13
Width: 215
Flags: W
LayerCount: 2
Fore
SplineSet
195 56 m 256,0,1
 195 31 195 31 177.5 13.5 c 128,-1,2
 160 -4 160 -4 135 -4 c 256,3,4
 110 -4 110 -4 92.5 13.5 c 128,-1,5
 75 31 75 31 75 56 c 256,6,7
 75 81 75 81 92.5 98.5 c 128,-1,8
 110 116 110 116 135 116 c 256,9,10
 160 116 160 116 177.5 98.5 c 128,-1,11
 195 81 195 81 195 56 c 256,0,1
EndSplineSet
Validated: 1
EndChar

StartChar: slash
Encoding: 47 47 14
Width: 456
Flags: W
LayerCount: 2
Fore
SplineSet
391 822 m 1,0,1
 401 839 401 839 417 839 c 0,2,3
 422 839 422 839 427 837 c 0,4,5
 449 829 449 829 443 801 c 1,6,-1
 71 -123 l 1,7,8
 60 -141 60 -141 44 -141 c 0,9,10
 39 -141 39 -141 34 -139 c 0,11,12
 12 -130 12 -130 19 -102 c 1,13,-1
 391 822 l 1,14,-1
 391 822 l 1,0,1
EndSplineSet
Validated: 37
EndChar

StartChar: zero
Encoding: 48 48 15
Width: 500
Flags: W
LayerCount: 2
Fore
SplineSet
473 365 m 0,0,1
 473 -14 473 -14 250 -14 c 0,2,3
 128 -14 128 -14 75 89 c 1,4,5
 27 180 27 180 27 365 c 0,6,7
 27 748 27 748 249 748 c 0,8,9
 473 748 473 748 473 365 c 0,0,1
401 370 m 0,10,11
 401 689 401 689 250 689 c 0,12,13
 98 689 98 689 98 370 c 0,14,15
 98 44 98 44 248 44 c 0,16,17
 401 44 401 44 401 370 c 0,10,11
EndSplineSet
Validated: 1
EndChar

StartChar: one
Encoding: 49 49 16
Width: 404
Flags: W
LayerCount: 2
Fore
SplineSet
248 740 m 1,0,-1
 248 50 l 1,1,-1
 337 50 l 1,2,3
 364 49 364 49 364 25 c 0,4,5
 364 2 364 2 337 0 c 1,6,-1
 89 0 l 1,7,8
 60 2 60 2 60 25 c 0,9,10
 60 49 60 49 89 50 c 1,11,-1
 184 50 l 1,12,-1
 184 641 l 1,13,-1
 83 586 l 1,14,15
 56 590 56 590 56 613 c 0,16,17
 56 634 56 634 84 648 c 1,18,-1
 248 740 l 1,0,-1
EndSplineSet
Validated: 1
EndChar

StartChar: two
Encoding: 50 50 17
Width: 500
Flags: W
LayerCount: 2
Fore
SplineSet
253 743 m 0,0,1
 305 743 305 743 350 717 c 0,2,3
 433 671 433 671 433 558 c 0,4,5
 433 469 433 469 313 303 c 2,6,-1
 133 56 l 1,7,-1
 422 56 l 2,8,9
 450 56 450 56 450 28 c 0,10,11
 450 -1 450 -1 420 0 c 1,12,-1
 80 0 l 1,13,14
 50 12 50 12 50 28 c 0,15,16
 50 45 50 45 62 62 c 2,17,-1
 261 338 l 2,18,19
 315 414 315 414 335 451 c 0,20,21
 368 511 368 511 368 557 c 0,22,23
 368 617 368 617 337 651.5 c 128,-1,24
 306 686 306 686 251 686 c 0,25,26
 158 686 158 686 131 600 c 1,27,28
 127 573 127 573 102 573 c 0,29,30
 76 573 76 573 76 604 c 0,31,32
 76 660 76 660 128 701.5 c 128,-1,33
 180 743 180 743 253 743 c 0,0,1
EndSplineSet
Validated: 33
EndChar

StartChar: three
Encoding: 51 51 18
Width: 500
Flags: W
LayerCount: 2
Fore
SplineSet
258 744 m 0,0,1
 312 743 312 743 357 712 c 0,2,3
 430 661 430 661 430 548 c 0,4,5
 430 491 430 491 388 448 c 0,6,7
 367 427 367 427 313 394 c 1,8,9
 379 365 379 365 402 345 c 0,10,11
 459 295 459 295 459 202 c 0,12,13
 459 114 459 114 390 50 c 0,14,15
 326 -10 326 -10 246 -10 c 0,16,17
 99 -10 99 -10 41 61 c 0,18,19
 34 71 34 71 41 79 c 2,20,-1
 64 106 l 2,21,22
 65 106 65 106 68 108 c 0,23,24
 74 111 74 111 79 107 c 0,25,26
 114 75 114 75 151.5 63 c 128,-1,27
 189 51 189 51 248 51 c 0,28,29
 299 51 299 51 343.5 95.5 c 128,-1,30
 388 140 388 140 388 201 c 0,31,32
 388 295 388 295 312 332 c 0,33,34
 270 353 270 353 215 353 c 2,35,-1
 172 353 l 2,36,37
 159 353 159 353 159 366 c 2,38,-1
 159 411 l 2,39,40
 159 412 159 412 160.5 417 c 128,-1,41
 162 422 162 422 169 422 c 2,42,-1
 215 422 l 2,43,44
 267 422 267 422 314 460.5 c 128,-1,45
 361 499 361 499 361 552 c 0,46,47
 361 613 361 613 326 652 c 0,48,49
 296 685 296 685 258 686 c 1,50,51
 207 686 207 686 175 671 c 0,52,53
 160 664 160 664 117 630 c 0,54,55
 107 622 107 622 103 631 c 1,56,-1
 79 656 l 2,57,58
 70 664 70 664 78 674 c 0,59,60
 137 746 137 746 258 744 c 0,0,1
EndSplineSet
Validated: 33
EndChar

StartChar: four
Encoding: 52 52 19
Width: 500
Flags: W
LayerCount: 2
Fore
SplineSet
468 232 m 0,0,1
 468 209 468 209 441 205 c 1,2,-1
 363 205 l 1,3,-1
 363 13 l 2,4,5
 363 -2 363 -2 351 -2 c 2,6,-1
 312 -2 l 2,7,8
 300 -2 300 -2 300 12 c 2,9,-1
 300 204 l 1,10,-1
 67 205 l 2,11,12
 60 205 60 205 54 207 c 0,13,14
 39 213 39 213 35 227 c 0,15,16
 32 235 32 235 32 244 c 0,17,18
 32 260 32 260 40 274 c 1,19,-1
 248 721 l 2,20,21
 259 743 259 743 277 743 c 0,22,23
 289 743 289 743 299.5 734.5 c 128,-1,24
 310 726 310 726 310 715 c 0,25,26
 310 708 310 708 306 702 c 1,27,-1
 96 258 l 1,28,-1
 300 258 l 1,29,-1
 300 387 l 2,30,31
 300 401 300 401 312 401 c 2,32,-1
 351 401 l 2,33,34
 363 401 363 401 363 388 c 2,35,-1
 363 258 l 1,36,-1
 440 258 l 1,37,38
 468 256 468 256 468 232 c 0,0,1
EndSplineSet
Validated: 1
EndChar

StartChar: five
Encoding: 53 53 20
Width: 500
Flags: W
LayerCount: 2
Fore
SplineSet
110 733 m 1,0,-1
 400 733 l 1,1,2
 427 721 427 721 427 703 c 0,3,4
 427 679 427 679 400 675 c 1,5,-1
 154 675 l 1,6,-1
 154 438 l 1,7,8
 188 443 188 443 220 443 c 0,9,10
 339 443 339 443 402 378 c 0,11,12
 459 319 459 319 459 217 c 0,13,14
 459 124 459 124 394 58 c 0,15,16
 326 -10 326 -10 226 -10 c 0,17,18
 99 -10 99 -10 41 61 c 0,19,20
 34 71 34 71 41 79 c 2,21,-1
 64 106 l 2,22,23
 65 106 65 106 68 108 c 0,24,25
 74 111 74 111 78 107 c 1,26,-1
 79 107 l 1,27,28
 117 73 117 73 142 63 c 0,29,30
 172 51 172 51 228 51 c 0,31,32
 297 51 297 51 343.5 100 c 128,-1,33
 390 149 390 149 390 215 c 0,34,35
 390 380 390 380 213 380 c 0,36,37
 188 380 188 380 159 377 c 1,38,-1
 101 368 l 2,39,40
 86 366 86 366 86 383 c 2,41,-1
 87 711 l 2,42,43
 87 734 87 734 110 733 c 1,0,-1
EndSplineSet
Validated: 33
EndChar

StartChar: six
Encoding: 54 54 21
Width: 500
Flags: W
LayerCount: 2
Fore
SplineSet
311 744 m 0,0,1
 372 744 372 744 405 723 c 0,2,3
 415 716 415 716 411 706 c 2,4,-1
 398 674 l 2,5,6
 398 676 398 676 392.5 671.5 c 128,-1,7
 387 667 387 667 385 668 c 0,8,9
 372 672 372 672 359 677 c 0,10,11
 338 684 338 684 318 684 c 0,12,13
 219 684 219 684 161 564 c 0,14,15
 119 475 119 475 119 397 c 1,16,17
 132 421 132 421 166 442 c 0,18,19
 212 471 212 471 263 471 c 0,20,21
 328 471 328 471 381 423 c 0,22,23
 451 359 451 359 451 237 c 0,24,25
 451 130 451 130 396 60 c 128,-1,26
 341 -10 341 -10 249 -10 c 0,27,28
 155 -10 155 -10 102.5 70 c 128,-1,29
 50 150 50 150 50 284 c 0,30,31
 50 446 50 446 95 566 c 0,32,33
 162 744 162 744 311 744 c 0,0,1
384 236 m 0,34,35
 384 314 384 314 349.5 364 c 128,-1,36
 315 414 315 414 259 414 c 0,37,38
 198 414 198 414 161 359.5 c 128,-1,39
 124 305 124 305 124 229 c 0,40,41
 124 151 124 151 161.5 100 c 128,-1,42
 199 49 199 49 252 49 c 256,43,44
 305 49 305 49 342 94 c 0,45,46
 384 146 384 146 384 236 c 0,34,35
EndSplineSet
Validated: 1
EndChar

StartChar: seven
Encoding: 55 55 22
Width: 473
Flags: W
LayerCount: 2
Fore
SplineSet
443 711 m 0,0,1
 443 705 443 705 434 683 c 2,2,-1
 175 56 l 2,3,4
 169 43 169 43 159 23 c 1,5,6
 144 1 144 1 123 1 c 0,7,8
 95 1 95 1 95 25 c 0,9,10
 95 37 95 37 101 50 c 2,11,-1
 356 675 l 1,12,-1
 58 675 l 1,13,14
 30 687 30 687 30 703 c 0,15,16
 30 729 30 729 58 733 c 1,17,-1
 420 733 l 1,18,19
 443 734 443 734 443 711 c 0,0,1
EndSplineSet
Validated: 33
EndChar

StartChar: eight
Encoding: 56 56 23
Width: 500
Flags: W
LayerCount: 2
Fore
SplineSet
251 743 m 0,0,1
 308 743 308 743 350 720 c 0,2,3
 431 675 431 675 431 556 c 0,4,5
 431 466 431 466 317 396 c 1,6,7
 460 334 460 334 460 184 c 0,8,9
 460 95 460 95 401 42.5 c 128,-1,10
 342 -10 342 -10 251 -11 c 1,11,12
 157 -11 157 -11 98.5 43 c 128,-1,13
 40 97 40 97 40 189 c 0,14,15
 40 342 40 342 176 397 c 1,16,17
 71 450 71 450 71 556 c 0,18,19
 71 676 71 676 152 721 c 0,20,21
 193 743 193 743 251 743 c 0,0,1
362 560 m 0,22,23
 362 629 362 629 325 662 c 0,24,25
 296 688 296 688 250 688 c 0,26,27
 140 688 140 688 140 560 c 0,28,29
 140 472 140 472 251 424 c 1,30,31
 306 449 306 449 331 475 c 0,32,33
 362 509 362 509 362 560 c 0,22,23
389 183 m 0,34,35
 389 249 389 249 366 289 c 0,36,37
 348 320 348 320 312 341 c 0,38,39
 281 358 281 358 250 375 c 1,40,41
 173 332 173 332 159 319 c 0,42,43
 111 273 111 273 111 188 c 0,44,45
 111 123 111 123 147.5 85 c 128,-1,46
 184 47 184 47 250 47 c 0,47,48
 313 47 313 47 351 84 c 128,-1,49
 389 121 389 121 389 183 c 0,34,35
176 397 m 0,50,-1
EndSplineSet
Validated: 1
EndChar

StartChar: nine
Encoding: 57 57 24
Width: 500
Flags: W
LayerCount: 2
Fore
SplineSet
448 445 m 0,0,1
 448 259 448 259 411 157 c 0,2,3
 349 -10 349 -10 184 -10 c 0,4,5
 123 -10 123 -10 90 11 c 0,6,7
 80 17 80 17 84 28 c 2,8,-1
 97 60 l 1,9,10
 97 57 97 57 102.5 61.5 c 128,-1,11
 108 66 108 66 110 66 c 0,12,13
 123 61 123 61 136 57 c 0,14,15
 157 50 157 50 177 50 c 0,16,17
 296 50 296 50 347 171 c 0,18,19
 377 243 377 243 377 331 c 1,20,21
 363 305 363 305 333 285 c 0,22,23
 289 256 289 256 232 256 c 0,24,25
 177 256 177 256 124 305 c 0,26,27
 52 371 52 371 52 490 c 0,28,29
 52 599 52 599 108.5 671.5 c 128,-1,30
 165 744 165 744 256 744 c 0,31,32
 349 744 349 744 399 660 c 1,33,34
 448 581 448 581 448 445 c 0,0,1
369 500 m 0,35,36
 369 580 369 580 337 632.5 c 128,-1,37
 305 685 305 685 253 685 c 0,38,39
 200 685 200 685 163 637 c 0,40,41
 121 584 121 584 121 494 c 0,42,43
 121 416 121 416 156 364.5 c 128,-1,44
 191 313 191 313 247 313 c 0,45,46
 307 313 307 313 340 370 c 0,47,48
 369 421 369 421 369 500 c 0,35,36
EndSplineSet
Validated: 1
EndChar

StartChar: colon
Encoding: 58 58 25
Width: 215
Flags: W
LayerCount: 2
Fore
SplineSet
195 336 m 256,0,1
 195 311 195 311 177.5 293.5 c 128,-1,2
 160 276 160 276 135 276 c 256,3,4
 110 276 110 276 92.5 293.5 c 128,-1,5
 75 311 75 311 75 336 c 256,6,7
 75 361 75 361 92.5 378.5 c 128,-1,8
 110 396 110 396 135 396 c 256,9,10
 160 396 160 396 177.5 378.5 c 128,-1,11
 195 361 195 361 195 336 c 256,0,1
195 56 m 256,12,13
 195 31 195 31 177.5 13.5 c 128,-1,14
 160 -4 160 -4 135 -4 c 256,15,16
 110 -4 110 -4 92.5 13.5 c 128,-1,17
 75 31 75 31 75 56 c 256,18,19
 75 81 75 81 92.5 98.5 c 128,-1,20
 110 116 110 116 135 116 c 256,21,22
 160 116 160 116 177.5 98.5 c 128,-1,23
 195 81 195 81 195 56 c 256,12,13
EndSplineSet
Validated: 1
EndChar

StartChar: semicolon
Encoding: 59 59 26
Width: 215
Flags: W
LayerCount: 2
Fore
SplineSet
195 329 m 256,0,1
 195 304 195 304 177.5 286.5 c 128,-1,2
 160 269 160 269 135 269 c 256,3,4
 110 269 110 269 92.5 286.5 c 128,-1,5
 75 304 75 304 75 329 c 256,6,7
 75 354 75 354 92.5 371.5 c 128,-1,8
 110 389 110 389 135 389 c 256,9,10
 160 389 160 389 177.5 371.5 c 128,-1,11
 195 354 195 354 195 329 c 256,0,1
197 45 m 0,12,13
 194 -43 194 -43 117 -89 c 1,14,15
 95 -100 95 -100 88 -97 c 0,16,17
 79 -93 79 -93 91 -83 c 0,18,19
 141 -43 141 -43 145 -4 c 1,20,21
 141 -6 141 -6 123 -7 c 1,22,23
 99 -4 99 -4 86 14 c 128,-1,24
 73 32 73 32 75 57 c 0,25,26
 78 82 78 82 97.5 97.5 c 128,-1,27
 117 113 117 113 141 111 c 0,28,29
 165 108 165 108 181.5 88.5 c 128,-1,30
 198 69 198 69 197 45 c 0,12,13
EndSplineSet
Validated: 33
EndChar

StartChar: less
Encoding: 60 60 27
Width: 289
Flags: W
LayerCount: 2
Fore
SplineSet
213 513 m 1,0,1
 213 513 213 513 222 510 c 1,2,-1
 249 495 l 2,3,4
 258 490 258 490 258 485 c 0,5,6
 258 484 258 484 254 476 c 1,7,-1
 103 285 l 1,8,-1
 254 95 l 2,9,10
 259 89 259 89 259 86 c 0,11,12
 259 82 259 82 249 76 c 2,13,-1
 222 61 l 2,14,15
 217 58 217 58 213 58 c 0,16,17
 207 58 207 58 203 65 c 1,18,-1
 35 276 l 2,19,20
 30 281 30 281 30 285 c 0,21,22
 30 290 30 290 35 295 c 2,23,-1
 203 506 l 2,24,25
 209 513 209 513 213 513 c 1,0,1
EndSplineSet
Validated: 1
EndChar

StartChar: equal
Encoding: 61 61 28
Width: 369
Flags: W
LayerCount: 2
Fore
SplineSet
341 351 m 1,0,1
 369 347 369 347 369 324 c 0,2,3
 369 300 369 300 341 295 c 1,4,-1
 78 295 l 1,5,6
 50 301 50 301 50 324 c 256,7,8
 50 347 50 347 78 351 c 1,9,-1
 341 351 l 1,10,-1
 341 351 l 1,0,1
341 253 m 1,11,12
 369 248 369 248 369 225 c 256,13,14
 369 202 369 202 341 197 c 1,15,-1
 78 197 l 1,16,17
 50 202 50 202 50 225 c 256,18,19
 50 248 50 248 78 253 c 1,20,-1
 341 253 l 1,21,-1
 341 253 l 1,11,12
EndSplineSet
Validated: 5
EndChar

StartChar: greater
Encoding: 62 62 29
Width: 289
Flags: W
LayerCount: 2
Fore
SplineSet
259 285 m 0,0,1
 259 281 259 281 254 276 c 2,2,-1
 86 65 l 1,3,4
 82 58 82 58 76 58 c 0,5,6
 72 58 72 58 67 61 c 2,7,-1
 40 76 l 2,8,9
 30 82 30 82 30 86 c 0,10,11
 30 89 30 89 35 95 c 2,12,-1
 186 285 l 1,13,-1
 35 476 l 1,14,15
 31 484 31 484 31 485 c 0,16,17
 31 490 31 490 40 495 c 2,18,-1
 67 510 l 1,19,20
 76 513 76 513 76 513 c 1,21,22
 80 513 80 513 86 506 c 2,23,-1
 254 295 l 2,24,25
 259 290 259 290 259 285 c 0,0,1
EndSplineSet
Validated: 1
EndChar

StartChar: question
Encoding: 63 63 30
Width: 413
Flags: W
LayerCount: 2
Fore
SplineSet
373 548 m 0,0,1
 373 472 373 472 323 418 c 1,2,3
 281 375 281 375 229 364 c 1,4,-1
 222 257 l 2,5,6
 220 229 220 229 194 229 c 0,7,8
 167 229 167 229 166 258 c 2,9,-1
 160 398 l 1,10,11
 223 398 223 398 267 442.5 c 128,-1,12
 311 487 311 487 311 551 c 0,13,14
 311 613 311 613 271 653 c 0,15,16
 237 687 237 687 201 687 c 0,17,18
 155 688 155 688 126 674 c 0,19,20
 112 667 112 667 74 638 c 0,21,22
 65 630 65 630 61 638 c 1,23,-1
 40 663 l 2,24,25
 33 671 33 671 40 679 c 0,26,27
 97 743 97 743 201 742 c 0,28,29
 252 741 252 741 298 709 c 0,30,31
 373 658 373 658 373 548 c 0,0,1
256 56 m 256,32,33
 256 31 256 31 238.5 13.5 c 128,-1,34
 221 -4 221 -4 196 -4 c 256,35,36
 171 -4 171 -4 153.5 13.5 c 128,-1,37
 136 31 136 31 136 56 c 256,38,39
 136 81 136 81 153.5 98.5 c 128,-1,40
 171 116 171 116 196 116 c 256,41,42
 221 116 221 116 238.5 98.5 c 128,-1,43
 256 81 256 81 256 56 c 256,32,33
EndSplineSet
Validated: 33
EndChar

StartChar: at
Encoding: 64 64 31
Width: 812
Flags: W
LayerCount: 2
Fore
SplineSet
771 226 m 0,0,1
 771 109 771 109 713 46 c 1,2,3
 658 -12 658 -12 565 -12 c 0,4,5
 516 -12 516 -12 490.5 12 c 128,-1,6
 465 36 465 36 465 72 c 0,7,8
 465 79 465 79 466 86 c 1,9,-1
 464 86 l 1,10,11
 449 48 449 48 413 20 c 0,12,13
 373 -12 373 -12 327 -12 c 0,14,15
 233 -12 233 -12 233 111 c 0,16,17
 233 215 233 215 287 281 c 1,18,19
 344 353 344 353 444 353 c 0,20,21
 500 353 500 353 561 340 c 1,22,-1
 528 158 l 2,23,24
 524 134 524 134 524 116 c 0,25,26
 524 49 524 49 579 49 c 0,27,28
 633 49 633 49 669 91 c 0,29,30
 710 139 710 139 710 222 c 0,31,32
 710 326 710 326 639 395 c 0,33,34
 562 470 562 470 434 470 c 0,35,36
 302 470 302 470 206 377 c 0,37,38
 107 281 107 281 107 140 c 0,39,40
 107 9 107 9 185 -69 c 1,41,42
 264 -150 264 -150 402 -150 c 0,43,44
 466 -150 466 -150 540 -128 c 0,45,46
 553 -125 553 -125 553 -134 c 2,47,-1
 553 -174 l 2,48,49
 553 -190 553 -190 540 -192 c 1,50,51
 473 -211 473 -211 392 -211 c 0,52,53
 229 -211 229 -211 134 -115 c 0,54,55
 41 -22 41 -22 41 133 c 0,56,57
 41 304 41 304 159 418 c 0,58,59
 273 528 273 528 438 528 c 0,60,61
 591 528 591 528 685 436 c 1,62,63
 771 350 771 350 771 226 c 0,0,1
485 297 m 1,64,65
 466 303 466 303 429 303 c 0,66,67
 368 303 368 303 328 239 c 0,68,69
 293 184 293 184 293 120 c 0,70,71
 293 46 293 46 343 46 c 0,72,73
 386 46 386 46 421.5 101.5 c 128,-1,74
 457 157 457 157 476 251 c 2,75,-1
 485 297 l 1,64,65
EndSplineSet
Validated: 1
EndChar

StartChar: A
Encoding: 65 65 32
Width: 741
Flags: W
LayerCount: 2
Fore
SplineSet
719 25 m 256,0,1
 719 2 719 2 691 0 c 1,2,-1
 478 0 l 1,3,4
 450 2 450 2 450 25 c 256,5,6
 450 48 450 48 478 50 c 1,7,-1
 555 50 l 1,8,-1
 496 224 l 1,9,-1
 240 224 l 1,10,-1
 186 50 l 1,11,-1
 263 50 l 1,12,13
 291 48 291 48 291 25 c 256,14,15
 291 2 291 2 263 0 c 1,16,-1
 50 0 l 1,17,18
 22 2 22 2 22 25 c 256,19,20
 22 48 22 48 49 50 c 1,21,-1
 122 50 l 1,22,-1
 327 721 l 1,23,24
 337 746 337 746 358 746 c 0,25,26
 386 746 386 746 391 723 c 1,27,-1
 620 50 l 1,28,-1
 692 50 l 1,29,30
 719 48 719 48 719 25 c 256,0,1
480 277 m 1,31,-1
 359 623 l 1,32,-1
 252 277 l 1,33,-1
 480 277 l 1,31,-1
EndSplineSet
Validated: 1
EndChar

StartChar: B
Encoding: 66 66 33
Width: 583
Flags: W
LayerCount: 2
Fore
SplineSet
50 0 m 1,0,1
 22 3 22 3 22 26 c 256,2,3
 22 49 22 49 49 52 c 1,4,-1
 123 52 l 1,5,-1
 123 681 l 1,6,-1
 50 681 l 1,7,8
 22 684 22 684 22 706 c 0,9,10
 22 730 22 730 50 733 c 1,11,-1
 270 733 l 2,12,13
 501 733 501 733 501 555 c 0,14,15
 501 484 501 484 460 436 c 0,16,17
 427 397 427 397 382 387 c 1,18,19
 538 357 538 357 538 210 c 0,20,21
 538 124 538 124 488 69 c 0,22,23
 424 0 424 0 333 0 c 2,24,-1
 50 0 l 1,0,1
434 554 m 0,25,26
 434 640 434 640 352 669 c 0,27,28
 318 680 318 680 270 680 c 2,29,-1
 189 680 l 1,30,-1
 189 409 l 1,31,-1
 255 409 l 2,32,33
 434 409 434 409 434 554 c 0,25,26
469 212 m 0,34,35
 469 353 469 353 269 353 c 2,36,-1
 189 353 l 1,37,-1
 189 53 l 1,38,-1
 289 53 l 2,39,40
 388 53 388 53 434 102 c 0,41,42
 469 140 469 140 469 212 c 0,34,35
EndSplineSet
Validated: 1
EndChar

StartChar: C
Encoding: 67 67 34
Width: 609
Flags: W
LayerCount: 2
Fore
SplineSet
546 554 m 1,0,1
 523 525 523 525 519 525 c 0,2,3
 495 525 495 525 493 553 c 1,4,-1
 493 639 l 1,5,6
 448 667 448 667 441 670 c 0,7,8
 398 687 398 687 317 687 c 0,9,10
 248 687 248 687 192 638 c 0,11,12
 97 554 97 554 97 365 c 0,13,14
 97 189 97 189 175 105 c 0,15,16
 231 44 231 44 308 44 c 0,17,18
 413 44 413 44 491 94 c 1,19,-1
 491 178 l 1,20,21
 493 205 493 205 517 205 c 0,22,23
 540 205 540 205 544 177 c 1,24,-1
 544 61 l 1,25,26
 518 37 518 37 462 15 c 0,27,28
 388 -14 388 -14 308 -14 c 0,29,30
 188 -14 188 -14 112 73 c 0,31,32
 22 175 22 175 22 370 c 0,33,34
 22 588 22 588 156 688 c 0,35,36
 232 744 232 744 320 744 c 0,37,38
 465 744 465 744 546 669 c 1,39,-1
 546 554 l 1,0,1
EndSplineSet
Validated: 1
EndChar

StartChar: D
Encoding: 68 68 35
Width: 654
Flags: W
LayerCount: 2
Fore
SplineSet
602 360 m 0,0,1
 602 187 602 187 507 91 c 0,2,3
 417 0 417 0 263 0 c 2,4,-1
 50 0 l 1,5,6
 22 5 22 5 22 28 c 256,7,8
 22 51 22 51 49 54 c 1,9,-1
 122 54 l 1,10,-1
 122 679 l 1,11,-1
 50 679 l 1,12,13
 22 683 22 683 22 705 c 0,14,15
 22 729 22 729 50 733 c 1,16,-1
 259 733 l 2,17,18
 397 733 397 733 489 652 c 0,19,20
 602 552 602 552 602 360 c 0,0,1
533 364 m 0,21,22
 533 526 533 526 439 611 c 0,23,24
 365 679 365 679 259 679 c 2,25,-1
 189 679 l 1,26,-1
 189 54 l 1,27,-1
 265 54 l 2,28,29
 378 54 378 54 449 122 c 0,30,31
 533 203 533 203 533 364 c 0,21,22
EndSplineSet
Validated: 1
EndChar

StartChar: E
Encoding: 69 69 36
Width: 521
Flags: W
LayerCount: 2
UndoRedoHistory
Layer: 1
Undoes
EndUndoes
Redoes
EndRedoes
EndUndoRedoHistory
Fore
SplineSet
434 603 m 5,0,-1
 434 677 l 1,1,-1
 190 678 l 1,2,-1
 190 405 l 1,3,-1
 334 405 l 1,4,-1
 334 453 l 1,5,6
 339 480 339 480 362 480 c 256,7,8
 385 480 385 480 388 452 c 1,9,-1
 388 314 l 1,10,11
 384 286 384 286 361 286 c 256,12,13
 338 286 338 286 334 314 c 1,14,-1
 334 352 l 1,15,-1
 190 352 l 1,16,-1
 190 55 l 1,17,-1
 449 55 l 1,18,-1
 449 129 l 1,19,20
 460 157 460 157 478 157 c 0,21,22
 501 157 501 157 505 129 c 1,23,-1
 505 0 l 1,24,-1
 50 0 l 2,25,26
 39 0 39 0 30.5 8.5 c 128,-1,27
 22 17 22 17 22 28 c 0,28,29
 22 55 22 55 49 55 c 2,30,-1
 124 55 l 1,31,-1
 124 678 l 1,32,-1
 50 678 l 2,33,34
 22 678 22 678 22 704 c 0,35,36
 22 733 22 733 50 733 c 2,37,-1
 489 733 l 1,38,-1
 489 604 l 1,39,40
 434 603 l 5,0,-1
EndSplineSet
Validated: 1
EndChar

StartChar: F
Encoding: 70 70 37
Width: 507
Flags: W
LayerCount: 2
Fore
SplineSet
497 733 m 1,0,-1
 497 604 l 1,1,2
 493 576 493 576 470 576 c 0,3,4
 446 576 446 576 442 603 c 1,5,-1
 442 677 l 1,6,-1
 190 678 l 1,7,-1
 190 405 l 1,8,-1
 333 405 l 1,9,-1
 333 453 l 1,10,11
 338 480 338 480 361 480 c 256,12,13
 384 480 384 480 387 452 c 1,14,-1
 387 314 l 1,15,16
 383 286 383 286 360 286 c 256,17,18
 337 286 337 286 333 314 c 1,19,-1
 333 352 l 1,20,-1
 190 352 l 1,21,-1
 190 50 l 1,22,-1
 264 50 l 1,23,24
 292 48 292 48 292 25 c 256,25,26
 292 2 292 2 264 0 c 1,27,-1
 50 0 l 1,28,29
 23 2 23 2 23 25 c 256,30,31
 23 48 23 48 50 50 c 1,32,-1
 125 50 l 1,33,-1
 125 678 l 1,34,-1
 50 678 l 2,35,36
 22 678 22 678 22 705 c 0,37,38
 22 733 22 733 50 733 c 2,39,-1
 497 733 l 1,0,-1
EndSplineSet
Validated: 1
EndChar

StartChar: G
Encoding: 71 71 38
Width: 617
Flags: W
LayerCount: 2
Fore
SplineSet
321 743 m 0,0,1
 469 743 469 743 549 663 c 1,2,-1
 549 548 l 1,3,4
 545 519 545 519 522 519 c 0,5,6
 498 519 498 519 496 547 c 1,7,-1
 496 633 l 1,8,9
 454 662 454 662 448 665 c 0,10,11
 402 685 402 685 321 685 c 0,12,13
 242 685 242 685 177 616 c 1,14,15
 95 527 95 527 95 363 c 0,16,17
 95 187 95 187 173 104 c 0,18,19
 230 44 230 44 307 44 c 0,20,21
 445 44 445 44 502 144 c 1,22,-1
 502 260 l 1,23,-1
 400 260 l 2,24,25
 373 260 373 260 373 288 c 0,26,27
 373 312 373 312 400 315 c 1,28,-1
 566 315 l 1,29,-1
 567 20 l 2,30,31
 567 -11 567 -11 535 -11 c 0,32,33
 502 -11 502 -11 502 17 c 2,34,-1
 502 62 l 1,35,36
 436 -14 436 -14 305 -14 c 0,37,38
 185 -14 185 -14 110 72 c 0,39,40
 22 173 22 173 22 368 c 0,41,42
 22 554 22 554 129 659 c 0,43,44
 215 743 215 743 321 743 c 0,0,1
EndSplineSet
Validated: 1
EndChar

StartChar: H
Encoding: 72 72 39
Width: 688
Flags: W
LayerCount: 2
Fore
SplineSet
635 733 m 1,0,1
 663 731 663 731 663 707 c 0,2,3
 663 685 663 685 635 683 c 1,4,-1
 564 683 l 1,5,-1
 564 50 l 1,6,-1
 634 50 l 1,7,8
 663 48 663 48 663 25 c 256,9,10
 663 2 663 2 635 0 c 1,11,-1
 421 0 l 1,12,13
 394 2 394 2 394 25 c 256,14,15
 394 48 394 48 421 50 c 1,16,-1
 495 50 l 1,17,-1
 495 349 l 1,18,-1
 189 349 l 1,19,-1
 189 50 l 1,20,-1
 263 50 l 1,21,22
 291 48 291 48 291 25 c 256,23,24
 291 2 291 2 263 0 c 1,25,-1
 50 0 l 1,26,27
 22 2 22 2 22 25 c 256,28,29
 22 48 22 48 49 50 c 1,30,-1
 122 50 l 1,31,-1
 122 683 l 1,32,-1
 50 683 l 1,33,34
 22 685 22 685 22 707 c 0,35,36
 22 731 22 731 50 733 c 1,37,-1
 263 733 l 1,38,39
 291 731 291 731 291 707 c 0,40,41
 291 685 291 685 263 683 c 1,42,-1
 189 683 l 1,43,-1
 189 407 l 1,44,-1
 495 407 l 1,45,-1
 495 683 l 1,46,-1
 421 683 l 1,47,48
 394 685 394 685 394 707 c 0,49,50
 394 731 394 731 421 733 c 1,51,-1
 635 733 l 1,0,1
EndSplineSet
Validated: 1
EndChar

StartChar: I
Encoding: 73 73 40
Width: 311
Flags: W
LayerCount: 2
Fore
SplineSet
264 733 m 1,0,1
 291 731 291 731 291 707 c 0,2,3
 291 685 291 685 264 683 c 1,4,-1
 190 683 l 1,5,-1
 190 50 l 1,6,-1
 264 50 l 1,7,8
 291 48 291 48 291 25 c 256,9,10
 291 2 291 2 264 0 c 1,11,-1
 50 0 l 1,12,13
 22 2 22 2 22 25 c 256,14,15
 22 48 22 48 49 50 c 1,16,-1
 122 50 l 1,17,-1
 122 683 l 1,18,-1
 50 683 l 1,19,20
 22 685 22 685 22 707 c 0,21,22
 22 731 22 731 50 733 c 1,23,-1
 264 733 l 1,0,1
EndSplineSet
Validated: 1
EndChar

StartChar: J
Encoding: 74 74 41
Width: 391
Flags: W
LayerCount: 2
Fore
SplineSet
366 707 m 0,0,1
 366 685 366 685 339 683 c 1,2,-1
 265 683 l 1,3,-1
 265 187 l 2,4,5
 265 100 265 100 251 61 c 0,6,7
 223 -12 223 -12 138 -12 c 0,8,9
 92 -12 92 -12 29 23 c 1,10,11
 15 32 15 32 22 43 c 2,12,-1
 38 70 l 1,13,14
 43 83 43 83 53 76 c 0,15,16
 91 45 91 45 134 45 c 0,17,18
 163 45 163 45 180 68 c 0,19,20
 196 88 196 88 196 113 c 0,21,22
 197 159 197 159 197 191 c 2,23,-1
 197 683 l 1,24,-1
 125 683 l 1,25,26
 97 685 97 685 97 707 c 0,27,28
 97 731 97 731 125 733 c 1,29,-1
 339 733 l 1,30,31
 366 731 366 731 366 707 c 0,0,1
EndSplineSet
Validated: 1
EndChar

StartChar: K
Encoding: 75 75 42
Width: 678
Flags: W
LayerCount: 2
Fore
SplineSet
50 0 m 1,0,1
 22 2 22 2 22 25 c 256,2,3
 22 48 22 48 49 50 c 1,4,-1
 123 50 l 1,5,-1
 123 683 l 1,6,-1
 50 683 l 1,7,8
 22 685 22 685 22 707 c 0,9,10
 22 731 22 731 50 733 c 1,11,-1
 263 733 l 1,12,13
 291 731 291 731 291 707 c 0,14,15
 291 685 291 685 263 683 c 1,16,-1
 189 683 l 1,17,-1
 189 389 l 1,18,-1
 441 683 l 1,19,-1
 377 683 l 1,20,21
 349 685 349 685 349 707 c 0,22,23
 349 731 349 731 377 733 c 1,24,-1
 584 733 l 1,25,26
 612 731 612 731 612 707 c 0,27,28
 612 685 612 685 584 683 c 1,29,-1
 515 683 l 1,30,-1
 295 427 l 1,31,-1
 543 50 l 1,32,-1
 616 50 l 1,33,34
 644 48 644 48 644 25 c 256,35,36
 644 2 644 2 616 0 c 1,37,-1
 501 0 l 1,38,-1
 253 379 l 1,39,-1
 189 301 l 1,40,-1
 189 50 l 1,41,-1
 263 50 l 1,42,43
 291 48 291 48 291 25 c 256,44,45
 291 2 291 2 263 0 c 1,46,-1
 50 0 l 1,0,1
EndSplineSet
Validated: 1
EndChar

StartChar: L
Encoding: 76 76 43
Width: 508
Flags: W
LayerCount: 2
Fore
SplineSet
503 0 m 1,0,-1
 50 0 l 1,1,2
 22 5 22 5 22 28 c 256,3,4
 22 51 22 51 49 56 c 1,5,-1
 123 56 l 1,6,-1
 123 683 l 1,7,-1
 50 683 l 1,8,9
 22 685 22 685 22 707 c 0,10,11
 22 731 22 731 50 733 c 1,12,-1
 263 733 l 1,13,14
 291 731 291 731 291 707 c 0,15,16
 291 685 291 685 263 683 c 1,17,-1
 190 683 l 1,18,-1
 190 56 l 1,19,-1
 447 56 l 1,20,-1
 447 129 l 1,21,22
 458 157 458 157 476 157 c 0,23,24
 499 157 499 157 503 129 c 1,25,-1
 503 0 l 1,0,-1
EndSplineSet
Validated: 1
EndChar

StartChar: M
Encoding: 77 77 44
Width: 852
Flags: W
LayerCount: 2
Fore
SplineSet
773 733 m 1,0,1
 801 731 801 731 801 707 c 0,2,3
 801 685 801 685 773 683 c 1,4,-1
 700 683 l 1,5,-1
 728 50 l 1,6,-1
 802 50 l 1,7,8
 829 48 829 48 829 25 c 256,9,10
 829 2 829 2 801 0 c 1,11,-1
 588 0 l 1,12,13
 560 2 560 2 560 25 c 256,14,15
 560 48 560 48 588 50 c 1,16,-1
 662 50 l 1,17,-1
 635 650 l 1,18,-1
 463 66 l 1,19,20
 453 41 453 41 432 41 c 0,21,22
 404 41 404 41 399 64 c 1,23,-1
 218 651 l 1,24,-1
 189 50 l 1,25,-1
 263 50 l 1,26,27
 291 48 291 48 291 25 c 256,28,29
 291 2 291 2 263 0 c 1,30,-1
 50 0 l 1,31,32
 22 2 22 2 22 25 c 256,33,34
 22 48 22 48 49 50 c 1,35,-1
 124 50 l 1,36,-1
 154 683 l 1,37,-1
 80 683 l 1,38,39
 52 685 52 685 52 707 c 0,40,41
 52 731 52 731 80 733 c 1,42,-1
 218 733 l 2,43,44
 245 733 245 733 248 733 c 0,45,46
 260 731 260 731 263 720 c 2,47,-1
 428 158 l 1,48,-1
 590 720 l 2,49,50
 593 731 593 731 605 733 c 0,51,52
 608 733 608 733 635 733 c 2,53,-1
 773 733 l 1,0,1
EndSplineSet
Validated: 1
EndChar

StartChar: N
Encoding: 78 78 45
Width: 698
Flags: W
LayerCount: 2
Fore
SplineSet
673 707 m 0,0,1
 673 685 673 685 645 683 c 1,2,-1
 573 683 l 1,3,-1
 573 14 l 2,4,5
 573 -11 573 -11 543 -11 c 0,6,7
 522 -11 522 -11 510 12 c 2,8,-1
 189 648 l 1,9,-1
 189 50 l 1,10,-1
 263 50 l 1,11,12
 291 48 291 48 291 25 c 256,13,14
 291 2 291 2 263 0 c 1,15,-1
 50 0 l 1,16,17
 22 2 22 2 22 25 c 256,18,19
 22 48 22 48 49 50 c 1,20,-1
 124 50 l 1,21,-1
 124 683 l 1,22,-1
 50 683 l 1,23,24
 22 685 22 685 22 707 c 0,25,26
 22 731 22 731 50 733 c 1,27,-1
 186 733 l 2,28,29
 225 733 225 733 231 720 c 2,30,-1
 507 161 l 1,31,-1
 506 683 l 1,32,-1
 431 683 l 1,33,34
 404 685 404 685 404 707 c 0,35,36
 404 731 404 731 431 733 c 1,37,-1
 645 733 l 1,38,39
 673 731 673 731 673 707 c 0,0,1
EndSplineSet
Validated: 1
EndChar

StartChar: O
Encoding: 79 79 46
Width: 618
Flags: W
LayerCount: 2
Fore
SplineSet
588 365 m 0,0,1
 588 192 588 192 512.5 89 c 128,-1,2
 437 -14 437 -14 309 -14 c 0,3,4
 179 -14 179 -14 104.5 88.5 c 128,-1,5
 30 191 30 191 30 365 c 0,6,7
 30 537 30 537 108 642.5 c 128,-1,8
 186 748 186 748 309 748 c 0,9,10
 425 748 425 748 501 658 c 0,11,12
 588 555 588 555 588 365 c 0,0,1
514 370 m 0,13,14
 514 529 514 529 449 615 c 0,15,16
 394 689 394 689 309 689 c 256,17,18
 224 689 224 689 168 615 c 0,19,20
 103 529 103 529 103 370 c 256,21,22
 103 211 103 211 169 121 c 0,23,24
 226 44 226 44 308 44 c 0,25,26
 392 44 392 44 449 121 c 0,27,28
 514 210 514 210 514 370 c 0,13,14
EndSplineSet
Validated: 1
EndChar

StartChar: P
Encoding: 80 80 47
Width: 502
Flags: W
LayerCount: 2
Fore
SplineSet
492 546 m 0,0,1
 492 448 492 448 415 392 c 0,2,3
 353 348 353 348 257 348 c 2,4,-1
 189 348 l 1,5,-1
 189 50 l 1,6,-1
 263 50 l 1,7,8
 291 48 291 48 291 25 c 256,9,10
 291 2 291 2 263 0 c 1,11,-1
 50 0 l 1,12,13
 22 2 22 2 22 25 c 256,14,15
 22 48 22 48 49 50 c 1,16,-1
 122 50 l 1,17,-1
 122 681 l 1,18,-1
 50 681 l 1,19,20
 22 684 22 684 22 706 c 0,21,22
 22 730 22 730 50 733 c 1,23,-1
 261 733 l 2,24,25
 381 733 381 733 444 669 c 0,26,27
 492 619 492 619 492 546 c 0,0,1
425 544 m 0,28,29
 425 626 425 626 348 661 c 0,30,31
 306 680 306 680 257 680 c 2,32,-1
 189 680 l 1,33,-1
 189 404 l 1,34,-1
 252 404 l 2,35,36
 316 404 316 404 362 430 c 0,37,38
 425 466 425 466 425 544 c 0,28,29
EndSplineSet
Validated: 1
EndChar

StartChar: Q
Encoding: 81 81 48
Width: 625
Flags: W
LayerCount: 2
Fore
SplineSet
22 365 m 0,0,1
 22 537 22 537 100 642.5 c 128,-1,2
 178 748 178 748 301 748 c 0,3,4
 417 748 417 748 493 658 c 0,5,6
 580 555 580 555 580 365 c 0,7,8
 580 125 580 125 440 28 c 1,9,10
 457 -27 457 -27 518 -27 c 0,11,12
 544 -27 544 -27 579 -3 c 0,13,14
 589 4 589 4 599 4 c 0,15,16
 620 4 620 4 620 -17 c 0,17,18
 620 -28 620 -28 605 -40 c 0,19,20
 564 -75 564 -75 518 -75 c 0,21,22
 420 -75 420 -75 398 5 c 1,23,24
 354 -14 354 -14 301 -14 c 0,25,26
 177 -14 177 -14 99.5 90 c 128,-1,27
 22 194 22 194 22 365 c 0,0,1
508 370 m 0,28,29
 508 529 508 529 442 617 c 0,30,31
 386 693 386 693 301 693 c 256,32,33
 216 693 216 693 159 617 c 0,34,35
 93 529 93 529 93 370 c 0,36,37
 93 185 93 185 185 96 c 1,38,39
 185 123 185 123 212 150 c 1,40,41
 247 183 247 183 302 183 c 0,42,43
 359 183 359 183 395 149 c 1,44,45
 424 123 424 123 424 98 c 1,46,47
 508 169 508 169 508 370 c 0,28,29
383 66 m 1,48,49
 383 93 383 93 360 115 c 128,-1,50
 337 137 337 137 302 137 c 0,51,52
 269 137 269 137 246 116.5 c 128,-1,53
 223 96 223 96 223 65 c 1,54,55
 262 41 262 41 301 41 c 0,56,57
 343 41 343 41 383 66 c 1,48,49
EndSplineSet
Validated: 1
EndChar

StartChar: R
Encoding: 82 82 49
Width: 585
Flags: W
LayerCount: 2
Fore
SplineSet
50 0 m 1,0,1
 22 2 22 2 22 25 c 256,2,3
 22 48 22 48 49 50 c 1,4,-1
 123 50 l 1,5,-1
 123 681 l 1,6,-1
 50 681 l 1,7,8
 22 684 22 684 22 706 c 0,9,10
 22 730 22 730 50 733 c 1,11,-1
 263 733 l 2,12,13
 367 733 367 733 423 686 c 128,-1,14
 479 639 479 639 479 551 c 0,15,16
 479 483 479 483 446 435 c 0,17,18
 400 369 400 369 298 354 c 1,19,-1
 486 50 l 1,20,-1
 548 50 l 1,21,22
 576 48 576 48 576 25 c 256,23,24
 576 2 576 2 548 0 c 1,25,-1
 448 0 l 1,26,-1
 230 352 l 1,27,-1
 189 352 l 1,28,-1
 189 50 l 1,29,-1
 263 50 l 1,30,31
 291 48 291 48 291 25 c 256,32,33
 291 2 291 2 263 0 c 1,34,-1
 50 0 l 1,0,1
414 547 m 0,35,36
 414 680 414 680 245 680 c 2,37,-1
 189 680 l 1,38,-1
 189 409 l 1,39,-1
 252 409 l 2,40,41
 414 409 414 409 414 547 c 0,35,36
EndSplineSet
Validated: 1
EndChar

StartChar: S
Encoding: 83 83 50
Width: 499
Flags: W
LayerCount: 2
Fore
SplineSet
260 743 m 0,0,1
 362 743 362 743 433 696 c 1,2,-1
 433 577 l 1,3,4
 429 548 429 548 406 548 c 0,5,6
 382 548 382 548 380 576 c 1,7,-1
 380 661 l 1,8,9
 331 688 331 688 261 688 c 0,10,11
 198 688 198 688 158 659 c 0,12,13
 111 624 111 624 111 554 c 0,14,15
 111 506 111 506 150 473 c 1,16,17
 179 447 179 447 237 425 c 1,18,19
 283 409 283 409 328 393 c 1,20,21
 462 339 462 339 462 189 c 0,22,23
 462 116 462 116 405 57 c 0,24,25
 340 -10 340 -10 230 -11 c 0,26,27
 106 -12 106 -12 22 63 c 1,28,-1
 22 200 l 1,29,30
 26 228 26 228 49 228 c 256,31,32
 72 228 72 228 75 200 c 1,33,-1
 75 96 l 1,34,35
 124 47 124 47 229 47 c 0,36,37
 304 47 304 47 354 98 c 0,38,39
 391 137 391 137 391 188 c 0,40,41
 391 251 391 251 365 288 c 0,42,43
 345 316 345 316 306 334 c 1,44,45
 273 346 273 346 241 358 c 0,46,47
 206 371 206 371 171 384 c 1,48,49
 116 409 116 409 84 442 c 0,50,51
 42 487 42 487 42 550 c 0,52,53
 42 668 42 668 144 717 c 0,54,55
 199 743 199 743 260 743 c 0,0,1
EndSplineSet
Validated: 33
EndChar

StartChar: T
Encoding: 84 84 51
Width: 554
Flags: W
LayerCount: 2
Fore
SplineSet
544 733 m 1,0,-1
 544 604 l 1,1,2
 541 576 541 576 517 576 c 0,3,4
 494 576 494 576 489 603 c 1,5,-1
 489 678 l 1,6,-1
 311 679 l 1,7,-1
 311 50 l 1,8,-1
 395 50 l 1,9,10
 423 48 423 48 423 25 c 256,11,12
 423 2 423 2 395 0 c 1,13,-1
 160 0 l 1,14,15
 132 2 132 2 132 25 c 256,16,17
 132 48 132 48 159 50 c 1,18,-1
 242 50 l 1,19,-1
 242 679 l 1,20,-1
 65 678 l 1,21,-1
 65 603 l 1,22,23
 60 576 60 576 37 576 c 256,24,25
 14 576 14 576 10 604 c 1,26,-1
 10 733 l 1,27,-1
 544 733 l 1,0,-1
EndSplineSet
Validated: 1
EndChar

StartChar: U
Encoding: 85 85 52
Width: 689
Flags: W
LayerCount: 2
Fore
SplineSet
669 707 m 0,0,1
 669 685 669 685 641 683 c 1,2,-1
 568 683 l 1,3,-1
 568 220 l 2,4,5
 568 117 568 117 512 55 c 0,6,7
 452 -11 452 -11 341 -11 c 0,8,9
 231 -11 231 -11 172 57 c 1,10,11
 120 119 120 119 120 220 c 2,12,-1
 120 683 l 1,13,-1
 48 683 l 1,14,15
 20 685 20 685 20 707 c 0,16,17
 20 731 20 731 48 733 c 1,18,-1
 261 733 l 1,19,20
 289 731 289 731 289 707 c 0,21,22
 289 685 289 685 261 683 c 1,23,-1
 188 683 l 1,24,-1
 188 220 l 2,25,26
 188 50 188 50 341 50 c 0,27,28
 500 50 500 50 500 220 c 2,29,-1
 500 683 l 1,30,-1
 428 683 l 1,31,32
 400 685 400 685 400 707 c 0,33,34
 400 731 400 731 428 733 c 1,35,-1
 641 733 l 1,36,37
 669 731 669 731 669 707 c 0,0,1
EndSplineSet
Validated: 1
EndChar

StartChar: V
Encoding: 86 86 53
Width: 689
Flags: W
LayerCount: 2
Fore
SplineSet
674 707 m 0,0,1
 674 685 674 685 646 683 c 1,2,-1
 573 683 l 1,3,-1
 378 15 l 1,4,5
 374 -11 374 -11 345 -11 c 0,6,7
 320 -11 320 -11 312 15 c 2,8,-1
 115 683 l 1,9,-1
 43 683 l 1,10,11
 15 685 15 685 15 707 c 0,12,13
 15 731 15 731 43 733 c 1,14,-1
 256 733 l 1,15,16
 284 731 284 731 284 707 c 0,17,18
 284 685 284 685 256 683 c 1,19,-1
 183 683 l 1,20,-1
 346 126 l 1,21,-1
 505 683 l 1,22,-1
 433 683 l 1,23,24
 405 685 405 685 405 707 c 0,25,26
 405 731 405 731 433 733 c 1,27,-1
 646 733 l 1,28,29
 674 731 674 731 674 707 c 0,0,1
EndSplineSet
Validated: 1
EndChar

StartChar: W
Encoding: 87 87 54
Width: 885
Flags: W
LayerCount: 2
Fore
SplineSet
875 707 m 256,0,1
 875 684 875 684 846 682 c 1,2,-1
 791 682 l 1,3,-1
 630 11 l 2,4,5
 628 5 628 5 618 -4 c 128,-1,6
 608 -13 608 -13 595 -13 c 0,7,8
 568 -13 568 -13 562 11 c 2,9,-1
 441 457 l 1,10,-1
 331 11 l 2,11,12
 329 6 329 6 321 -2 c 0,13,14
 309 -13 309 -13 296 -13 c 0,15,16
 282 -13 282 -13 270 -2 c 0,17,18
 262 5 262 5 261 11 c 2,19,-1
 90 682 l 1,20,-1
 38 682 l 1,21,22
 10 684 10 684 10 707 c 0,23,24
 10 731 10 731 38 732 c 2,25,-1
 216 733 l 1,26,27
 245 730 245 730 245 707 c 256,28,29
 245 684 245 684 216 682 c 1,30,-1
 154 682 l 1,31,-1
 296 105 l 1,32,-1
 415 604 l 2,33,34
 421 629 421 629 441 629 c 0,35,36
 460 629 460 629 466 604 c 2,37,-1
 594 109 l 1,38,-1
 727 682 l 1,39,-1
 667 682 l 1,40,41
 640 684 640 684 640 707 c 0,42,43
 640 731 640 731 667 732 c 1,44,-1
 846 732 l 1,45,46
 875 730 875 730 875 707 c 256,0,1
EndSplineSet
Validated: 1
EndChar

StartChar: X
Encoding: 88 88 55
Width: 600
Flags: W
LayerCount: 2
Fore
SplineSet
549 732 m 1,0,1
 578 729 578 729 578 706 c 256,2,3
 578 683 578 683 549 682 c 1,4,-1
 499 682 l 1,5,-1
 342 386 l 1,6,-1
 504 50 l 1,7,-1
 565 50 l 1,8,9
 592 49 592 49 592 25 c 0,10,11
 592 2 592 2 565 0 c 1,12,-1
 396 0 l 1,13,14
 367 2 367 2 367 25 c 0,15,16
 367 49 367 49 396 50 c 1,17,-1
 435 50 l 1,18,-1
 307 318 l 1,19,-1
 179 50 l 1,20,-1
 222 50 l 1,21,22
 250 49 250 49 250 25 c 0,23,24
 250 2 250 2 222 0 c 1,25,-1
 50 0 l 1,26,27
 22 2 22 2 22 25 c 0,28,29
 22 49 22 49 50 50 c 1,30,-1
 111 50 l 1,31,-1
 272 386 l 1,32,-1
 116 682 l 1,33,-1
 69 682 l 1,34,35
 41 683 41 683 41 706 c 0,36,37
 41 730 41 730 69 732 c 1,38,-1
 229 732 l 1,39,40
 257 729 257 729 257 706 c 256,41,42
 257 683 257 683 229 682 c 1,43,-1
 184 682 l 1,44,-1
 307 447 l 1,45,-1
 430 682 l 1,46,-1
 385 682 l 1,47,48
 357 683 357 683 357 706 c 0,49,50
 357 730 357 730 385 732 c 1,51,-1
 549 732 l 1,0,1
EndSplineSet
Validated: 1
EndChar

StartChar: Y
Encoding: 89 89 56
Width: 617
Flags: W
LayerCount: 2
Fore
SplineSet
602 708 m 0,0,1
 602 684 602 684 573 683 c 1,2,-1
 514 683 l 1,3,-1
 337 319 l 1,4,-1
 337 50 l 1,5,-1
 408 50 l 1,6,7
 436 48 436 48 436 25 c 256,8,9
 436 2 436 2 409 0 c 1,10,-1
 195 0 l 1,11,12
 167 2 167 2 167 25 c 256,13,14
 167 48 167 48 195 50 c 1,15,-1
 269 50 l 1,16,-1
 269 319 l 1,17,-1
 95 683 l 1,18,-1
 43 683 l 1,19,20
 15 684 15 684 15 708 c 0,21,22
 15 731 15 731 43 733 c 1,23,-1
 221 733 l 1,24,25
 250 731 250 731 250 708 c 0,26,27
 250 684 250 684 221 683 c 1,28,-1
 162 683 l 1,29,-1
 304 389 l 1,30,-1
 448 683 l 1,31,-1
 394 683 l 1,32,33
 367 684 367 684 367 708 c 0,34,35
 367 731 367 731 394 733 c 1,36,-1
 573 733 l 1,37,38
 602 731 602 731 602 708 c 0,0,1
EndSplineSet
Validated: 1
EndChar

StartChar: Z
Encoding: 90 90 57
Width: 508
Flags: W
LayerCount: 2
Fore
SplineSet
445 733 m 1,0,1
 470 734 470 734 470 711 c 0,2,3
 470 704 470 704 458 683 c 2,4,-1
 108 56 l 1,5,-1
 436 56 l 1,6,-1
 436 131 l 1,7,8
 438 159 438 159 462 159 c 0,9,10
 485 159 485 159 489 131 c 1,11,-1
 489 0 l 1,12,-1
 48 0 l 2,13,14
 22 0 22 0 22 23 c 0,15,16
 22 28 22 28 34 50 c 2,17,-1
 381 675 l 1,18,-1
 87 675 l 1,19,-1
 87 600 l 1,20,21
 83 572 83 572 60 572 c 256,22,23
 37 572 37 572 33 600 c 1,24,-1
 33 733 l 1,25,-1
 445 733 l 1,0,1
EndSplineSet
Validated: 33
EndChar

StartChar: backslash
Encoding: 92 92 58
Width: 456
Flags: W
LayerCount: 2
Fore
SplineSet
71 822 m 1,0,-1
 443 -102 l 1,1,2
 450 -130 450 -130 428 -139 c 0,3,4
 423 -141 423 -141 418 -141 c 0,5,6
 402 -141 402 -141 391 -123 c 1,7,-1
 19 801 l 1,8,9
 13 829 13 829 35 837 c 0,10,11
 40 839 40 839 45 839 c 0,12,13
 61 839 61 839 71 822 c 1,14,-1
 71 822 l 1,0,-1
EndSplineSet
Validated: 37
EndChar

StartChar: asciicircum
Encoding: 94 94 59
Width: 489
Flags: W
LayerCount: 2
Fore
SplineSet
437 565 m 0,0,1
 437 562 437 562 434 558 c 2,2,-1
 422 536 l 2,3,4
 418 528 418 528 414 528 c 0,5,6
 412 528 412 528 407 532 c 2,7,-1
 255 653 l 1,8,-1
 102 532 l 1,9,10
 96 529 96 529 95 529 c 0,11,12
 91 529 91 529 87 536 c 2,13,-1
 75 558 l 1,14,15
 73 565 73 565 73 565 c 1,16,17
 73 569 73 569 78 573 c 2,18,-1
 247 707 l 2,19,20
 251 711 251 711 255 711 c 0,21,22
 258 711 258 711 262 707 c 2,23,-1
 431 573 l 1,24,25
 437 570 437 570 437 565 c 0,0,1
248 522 m 0,26,-1
248 522 m 0,27,-1
EndSplineSet
Validated: 1
EndChar

StartChar: underscore
Encoding: 95 95 60
Width: 856
Flags: W
LayerCount: 2
Fore
SplineSet
829 54 m 1,0,1
 857 50 857 50 857 26 c 0,2,3
 857 3 857 3 829 -2 c 1,4,-1
 21 -2 l 1,5,6
 -7 3 -7 3 -7 26 c 0,7,8
 -7 50 -7 50 21 54 c 1,9,-1
 829 54 l 1,10,-1
 829 54 l 1,0,1
EndSplineSet
Validated: 5
EndChar

StartChar: grave
Encoding: 96 96 61
Width: 489
Flags: W
LayerCount: 2
Fore
SplineSet
172 707 m 1,0,-1
 360 596 l 1,1,2
 373 585 373 585 373 571 c 0,3,4
 373 564 373 564 369 558 c 0,5,6
 362 545 362 545 348 545 c 0,7,8
 340 545 340 545 332 549 c 2,9,-1
 144 660 l 1,10,11
 129 671 129 671 129 685 c 0,12,13
 129 691 129 691 133 698 c 0,14,15
 141 711 141 711 156 711 c 0,16,17
 164 711 164 711 172 707 c 1,18,-1
 172 707 l 1,0,-1
172 707 m 1,19,-1
 360 596 l 1,20,21
 373 585 373 585 373 571 c 0,22,23
 373 564 373 564 369 558 c 0,24,25
 362 545 362 545 348 545 c 0,26,27
 340 545 340 545 332 549 c 2,28,-1
 144 660 l 1,29,30
 129 671 129 671 129 685 c 0,31,32
 129 691 129 691 133 698 c 0,33,34
 141 711 141 711 156 711 c 0,35,36
 164 711 164 711 172 707 c 1,37,-1
 172 707 l 1,19,-1
EndSplineSet
Validated: 5
EndChar

StartChar: a
Encoding: 97 97 62
Width: 511
Flags: W
LayerCount: 2
Fore
SplineSet
506 25 m 0,0,1
 506 2 506 2 478 0 c 1,2,-1
 325 0 l 1,3,-1
 325 55 l 1,4,5
 318 35 318 35 285 14 c 0,6,7
 246 -11 246 -11 205 -11 c 0,8,9
 121 -11 121 -11 78 34 c 0,10,11
 37 76 37 76 40 144 c 0,12,13
 47 312 47 312 326 312 c 1,14,15
 326 402 326 402 319 425 c 0,16,17
 302 478 302 478 235 478 c 0,18,19
 126 478 126 478 126 394 c 0,20,21
 126 382 126 382 117 383 c 1,22,-1
 79 383 l 2,23,24
 68 383 68 383 68 392 c 0,25,26
 68 439 68 439 104 475 c 1,27,28
 149 522 149 522 232 522 c 0,29,30
 388 522 388 522 388 362 c 2,31,-1
 388 50 l 1,32,-1
 478 50 l 1,33,34
 506 49 506 49 506 25 c 0,0,1
325 257 m 1,35,36
 236 257 236 257 192 245 c 0,37,38
 101 219 101 219 101 140 c 0,39,40
 101 39 101 39 207 39 c 0,41,42
 253 39 253 39 291 76 c 0,43,44
 325 110 325 110 325 141 c 2,45,-1
 325 257 l 1,35,36
EndSplineSet
Validated: 33
EndChar

StartChar: b
Encoding: 98 98 63
Width: 545
Flags: W
LayerCount: 2
Fore
SplineSet
501 248 m 0,0,1
 501 116 501 116 430 46 c 0,2,3
 372 -11 372 -11 289 -11 c 0,4,5
 257 -11 257 -11 225 5 c 128,-1,6
 193 21 193 21 177 47 c 1,7,-1
 177 40 l 2,8,9
 177 18 177 18 166 0 c 1,10,-1
 97 0 l 1,11,12
 113 25 113 25 113 61 c 2,13,-1
 113 683 l 1,14,-1
 27 683 l 1,15,16
 0 685 0 685 0 708 c 0,17,18
 0 732 0 732 28 733 c 1,19,-1
 177 731 l 1,20,-1
 177 453 l 1,21,22
 220 523 220 523 306 523 c 0,23,24
 378 523 378 523 429 474 c 0,25,26
 501 404 501 404 501 248 c 0,0,1
431 256 m 0,27,28
 431 353 431 353 398 414.5 c 128,-1,29
 365 476 365 476 302 476 c 0,30,31
 253 476 253 476 217 440 c 0,32,33
 177 401 177 401 177 337 c 2,34,-1
 177 158 l 2,35,36
 177 111 177 111 205 77 c 0,37,38
 236 40 236 40 286 40 c 0,39,40
 360 40 360 40 398 107 c 0,41,42
 431 164 431 164 431 256 c 0,27,28
EndSplineSet
Validated: 1
EndChar

StartChar: c
Encoding: 99 99 64
Width: 488
Flags: W
LayerCount: 2
Fore
SplineSet
265 524 m 0,0,1
 361 524 361 524 424 474 c 1,2,-1
 424 393 l 1,3,4
 420 365 420 365 397 365 c 0,5,6
 373 365 373 365 371 393 c 1,7,-1
 371 450 l 1,8,9
 330 474 330 474 264 474 c 0,10,11
 211 474 211 474 172 429 c 0,12,13
 121 370 121 370 121 255 c 0,14,15
 121 131 121 131 175 76 c 0,16,17
 209 42 209 42 254 42 c 256,18,19
 299 42 299 42 334 69 c 0,20,21
 375 101 375 101 375 154 c 0,22,23
 375 168 375 168 386 168 c 2,24,-1
 430 168 l 2,25,26
 437 168 437 168 437 156 c 0,27,28
 437 105 437 105 405 60 c 1,29,30
 356 -12 356 -12 249 -12 c 0,31,32
 166 -12 166 -12 113 48 c 0,33,34
 50 119 50 119 50 258 c 0,35,36
 50 392 50 392 127 466 c 0,37,38
 188 524 188 524 265 524 c 0,0,1
EndSplineSet
Validated: 1
EndChar

StartChar: d
Encoding: 100 100 65
Width: 556
Flags: W
LayerCount: 2
Fore
SplineSet
433 733 m 1,0,-1
 433 50 l 1,1,-1
 523 50 l 1,2,3
 551 49 551 49 551 25 c 0,4,5
 551 2 551 2 523 0 c 1,6,-1
 370 0 l 1,7,-1
 370 52 l 1,8,9
 363 23 363 23 312 1 c 0,10,11
 283 -11 283 -11 254 -11 c 0,12,13
 167 -11 167 -11 114 46 c 0,14,15
 51 113 51 113 51 248 c 0,16,17
 51 405 51 405 139 477 c 0,18,19
 196 523 196 523 260 523 c 0,20,21
 337 523 337 523 370 467 c 1,22,-1
 370 683 l 1,23,-1
 286 683 l 1,24,25
 259 685 259 685 259 708 c 0,26,27
 259 732 259 732 287 733 c 1,28,-1
 433 733 l 1,0,-1
370 347 m 1,29,30
 368 406 368 406 339.5 439.5 c 128,-1,31
 311 473 311 473 264 473 c 0,32,33
 209 473 209 473 167 424 c 1,34,35
 116 362 116 362 116 246 c 0,36,37
 116 178 116 178 141 122 c 0,38,39
 179 40 179 40 260 40 c 0,40,41
 304 40 304 40 337 80 c 128,-1,42
 370 120 370 120 370 181 c 2,43,-1
 370 347 l 1,44,45
 370 344 370 344 370 347 c 1,29,30
EndSplineSet
Validated: 5
EndChar

StartChar: e
Encoding: 101 101 66
Width: 489
Flags: W
LayerCount: 2
Fore
SplineSet
439 256 m 1,0,-1
 116 256 l 1,1,2
 116 39 116 39 249 39 c 0,3,4
 359 39 359 39 376 145 c 1,5,6
 376 159 376 159 386 159 c 2,7,-1
 426 159 l 2,8,9
 434 159 434 159 434 147 c 1,10,11
 427 65 427 65 371 24 c 0,12,13
 324 -11 324 -11 250 -11 c 0,14,15
 154 -11 154 -11 101 63 c 0,16,17
 50 134 50 134 50 258 c 0,18,19
 50 391 50 391 120 464 c 0,20,21
 176 522 176 522 248 522 c 0,22,23
 318 522 318 522 367 475 c 0,24,25
 439 407 439 407 439 256 c 1,0,-1
373 310 m 1,26,27
 373 391 373 391 329 436 c 0,28,29
 295 472 295 472 254 472 c 0,30,31
 209 472 209 472 174 439 c 0,32,33
 129 396 129 396 119 310 c 1,34,-1
 373 310 l 1,26,27
EndSplineSet
Validated: 1
EndChar

StartChar: f
Encoding: 102 102 67
Width: 386
Flags: W
LayerCount: 2
Fore
SplineSet
381 700 m 1,0,-1
 368 681 l 2,1,2
 362 673 362 673 351 679 c 0,3,4
 336 686 336 686 320 693 c 1,5,6
 294 702 294 702 258 702 c 0,7,8
 219 702 219 702 196 668 c 0,9,10
 178 641 178 641 178 612 c 2,11,-1
 178 511 l 1,12,-1
 286 511 l 1,13,14
 313 509 313 509 313 485 c 0,15,16
 313 462 313 462 286 460 c 1,17,-1
 178 460 l 1,18,-1
 178 50 l 1,19,-1
 247 50 l 1,20,21
 275 48 275 48 275 25 c 256,22,23
 275 2 275 2 247 0 c 1,24,-1
 46 0 l 1,25,26
 18 2 18 2 18 25 c 256,27,28
 18 48 18 48 46 50 c 1,29,-1
 113 50 l 1,30,-1
 113 460 l 1,31,-1
 55 460 l 1,32,33
 28 463 28 463 28 485 c 0,34,35
 28 509 28 509 56 511 c 1,36,-1
 113 511 l 1,37,-1
 113 565 l 2,38,39
 113 750 113 750 265 750 c 0,40,41
 327 750 327 750 376 717 c 0,42,43
 386 710 386 710 381 700 c 1,0,-1
EndSplineSet
Validated: 1
EndChar

StartChar: g
Encoding: 103 103 68
Width: 541
Flags: W
LayerCount: 2
Fore
SplineSet
531 402 m 1,0,1
 509 375 509 375 504 375 c 0,2,3
 480 375 480 375 478 402 c 1,4,-1
 478 457 l 1,5,6
 466 468 466 468 450 468 c 0,7,8
 424 468 424 468 403 447 c 1,9,10
 417 430 417 430 427 391.5 c 128,-1,11
 437 353 437 353 435 323 c 0,12,13
 432 281 432 281 415 246 c 0,14,15
 377 169 377 169 284 153 c 0,16,17
 257 148 257 148 231 148 c 0,18,19
 197 148 197 148 193 148 c 0,20,21
 126 142 126 142 126 108 c 0,22,23
 126 83 126 83 151 74 c 0,24,25
 181 64 181 64 277 64 c 0,26,27
 377 64 377 64 434 22 c 0,28,29
 488 -18 488 -18 488 -83 c 0,30,31
 488 -153 488 -153 416.5 -198 c 128,-1,32
 345 -243 345 -243 241 -243 c 0,33,34
 130 -243 130 -243 67 -188 c 0,35,36
 15 -143 15 -143 16 -91 c 0,37,38
 18 14 18 14 138 40 c 1,39,40
 66 53 66 53 66 105 c 0,41,42
 66 155 66 155 145 177 c 1,43,44
 57 223 57 223 60 335 c 256,45,46
 63 447 63 447 145 495 c 0,47,48
 193 522 193 522 248 522 c 0,49,50
 299 522 299 522 332 505 c 0,51,52
 333 505 333 505 371 479 c 1,53,54
 417 517 417 517 455 517 c 0,55,56
 492 517 492 517 531 486 c 1,57,-1
 531 402 l 1,0,1
367 339 m 0,58,59
 367 402 367 402 331 441 c 0,60,61
 297 477 297 477 249 477 c 0,62,63
 200 477 200 477 166 441 c 0,64,65
 129 402 129 402 129 339 c 0,66,67
 129 193 129 193 250 193 c 0,68,69
 306 193 306 193 336.5 232 c 128,-1,70
 367 271 367 271 367 339 c 0,58,59
415 -82 m 0,71,72
 415 21 415 21 244 21 c 0,73,74
 88 21 88 21 88 -85 c 0,75,76
 88 -139 88 -139 132 -168 c 0,77,78
 172 -195 172 -195 241 -195 c 0,79,80
 318 -195 318 -195 366.5 -166.5 c 128,-1,81
 415 -138 415 -138 415 -82 c 0,71,72
EndSplineSet
Validated: 33
EndChar

StartChar: h
Encoding: 104 104 69
Width: 613
Flags: W
LayerCount: 2
Fore
SplineSet
587 25 m 256,0,1
 587 2 587 2 559 0 c 1,2,-1
 426 0 l 1,3,-1
 426 312 l 2,4,5
 426 381 426 381 413 412 c 0,6,7
 393 461 393 461 335 461 c 0,8,9
 251 461 251 461 216 357 c 0,10,11
 201 314 201 314 198 253 c 1,12,-1
 198 50 l 1,13,-1
 272 50 l 1,14,15
 300 48 300 48 300 25 c 256,16,17
 300 2 300 2 272 0 c 1,18,-1
 60 0 l 1,19,20
 31 2 31 2 31 25 c 256,21,22
 31 48 31 48 60 50 c 1,23,-1
 134 50 l 1,24,-1
 134 683 l 1,25,-1
 47 683 l 1,26,27
 20 684 20 684 20 707 c 256,28,29
 20 730 20 730 48 733 c 1,30,-1
 203 733 l 1,31,-1
 203 405 l 1,32,33
 239 520 239 520 361 520 c 0,34,35
 443 520 443 520 475 432 c 0,36,37
 489 395 489 395 491 343 c 1,38,-1
 491 50 l 1,39,-1
 558 50 l 1,40,41
 587 48 587 48 587 25 c 256,0,1
EndSplineSet
Validated: 1
EndChar

StartChar: i
Encoding: 105 105 70
Width: 310
Flags: W
LayerCount: 2
Fore
SplineSet
202 683 m 256,0,1
 202 664 202 664 188.5 650 c 128,-1,2
 175 636 175 636 156 636 c 0,3,4
 136 636 136 636 122.5 650 c 128,-1,5
 109 664 109 664 109 683 c 256,6,7
 109 702 109 702 122.5 716 c 128,-1,8
 136 730 136 730 156 730 c 0,9,10
 175 730 175 730 188.5 716 c 128,-1,11
 202 702 202 702 202 683 c 256,0,1
187 511 m 1,12,-1
 187 50 l 1,13,-1
 262 50 l 1,14,15
 290 49 290 49 290 25 c 0,16,17
 290 2 290 2 262 0 c 1,18,-1
 49 0 l 1,19,20
 21 3 21 3 21 25 c 0,21,22
 21 49 21 49 49 50 c 1,23,-1
 124 50 l 1,24,-1
 124 460 l 1,25,-1
 37 460 l 1,26,27
 10 462 10 462 10 484 c 0,28,29
 10 508 10 508 38 511 c 1,30,-1
 187 511 l 1,12,-1
EndSplineSet
Validated: 1
EndChar

StartChar: j
Encoding: 106 106 71
Width: 306
Flags: W
LayerCount: 2
Fore
SplineSet
261 683 m 256,0,1
 261 664 261 664 247 650 c 128,-1,2
 233 636 233 636 214 636 c 0,3,4
 194 636 194 636 180.5 650 c 128,-1,5
 167 664 167 664 167 683 c 256,6,7
 167 702 167 702 180.5 716 c 128,-1,8
 194 730 194 730 214 730 c 0,9,10
 233 730 233 730 247 716 c 128,-1,11
 261 702 261 702 261 683 c 256,0,1
246 511 m 1,12,-1
 246 -67 l 2,13,14
 246 -144 246 -144 226 -182 c 0,15,16
 197 -240 197 -240 118 -240 c 0,17,18
 56 -240 56 -240 7 -208 c 0,19,20
 -4 -200 -4 -200 2 -191 c 2,21,-1
 18 -162 l 1,22,23
 22 -152 22 -152 37 -160 c 1,24,25
 66 -184 66 -184 114 -184 c 0,26,27
 182 -184 182 -184 182 -100 c 2,28,-1
 182 460 l 1,29,-1
 96 460 l 1,30,31
 68 462 68 462 68 484 c 0,32,33
 68 508 68 508 96 511 c 1,34,-1
 246 511 l 1,12,-1
EndSplineSet
Validated: 1
EndChar

StartChar: k
Encoding: 107 107 72
Width: 589
Flags: W
LayerCount: 2
Fore
SplineSet
45 0 m 1,0,1
 16 2 16 2 16 25 c 0,2,3
 16 49 16 49 45 50 c 1,4,-1
 119 50 l 1,5,-1
 119 683 l 1,6,-1
 32 683 l 1,7,8
 5 684 5 684 5 707 c 0,9,10
 5 731 5 731 33 733 c 1,11,-1
 183 733 l 1,12,-1
 183 297 l 1,13,14
 236 341 236 341 380 460 c 1,15,-1
 323 460 l 1,16,17
 295 461 295 461 295 485 c 0,18,19
 295 508 295 508 323 510 c 1,20,-1
 513 510 l 1,21,22
 541 508 541 508 541 485 c 0,23,24
 541 461 541 461 513 460 c 1,25,-1
 457 460 l 1,26,-1
 293 321 l 1,27,-1
 459 50 l 1,28,-1
 533 50 l 1,29,30
 562 48 562 48 562 25 c 256,31,32
 562 2 562 2 534 0 c 1,33,-1
 419 0 l 1,34,-1
 248 283 l 1,35,-1
 183 232 l 1,36,-1
 183 50 l 1,37,-1
 256 50 l 1,38,39
 284 49 284 49 284 25 c 0,40,41
 284 2 284 2 256 0 c 1,42,-1
 45 0 l 1,0,1
6 710 m 0,43,-1
EndSplineSet
Validated: 1
EndChar

StartChar: l
Encoding: 108 108 73
Width: 310
Flags: W
LayerCount: 2
Fore
SplineSet
192 733 m 1,0,-1
 192 54 l 1,1,-1
 267 54 l 1,2,3
 295 51 295 51 295 27 c 0,4,5
 295 4 295 4 267 0 c 1,6,-1
 54 0 l 1,7,8
 26 4 26 4 26 27 c 0,9,10
 26 51 26 51 54 54 c 1,11,-1
 129 54 l 1,12,-1
 129 679 l 1,13,-1
 42 679 l 1,14,15
 15 683 15 683 15 706 c 0,16,17
 15 730 15 730 43 733 c 1,18,-1
 192 733 l 1,0,-1
EndSplineSet
Validated: 1
EndChar

StartChar: m
Encoding: 109 109 74
Width: 904
Flags: W
LayerCount: 2
Fore
SplineSet
878 25 m 256,0,1
 878 2 878 2 850 0 c 1,2,-1
 711 0 l 1,3,-1
 711 312 l 2,4,5
 711 377 711 377 701 408 c 0,6,7
 683 461 683 461 630 461 c 0,8,9
 537 461 537 461 503 371 c 0,10,11
 487 329 487 329 487 269 c 2,12,-1
 487 50 l 1,13,-1
 564 50 l 1,14,15
 593 48 593 48 593 25 c 256,16,17
 593 2 593 2 565 0 c 1,18,-1
 423 0 l 1,19,-1
 422 312 l 2,20,21
 422 384 422 384 412 412 c 0,22,23
 393 461 393 461 336 461 c 0,24,25
 248 461 248 461 214 359 c 0,26,27
 198 310 198 310 198 253 c 2,28,-1
 198 50 l 1,29,-1
 272 50 l 1,30,31
 300 49 300 49 300 25 c 0,32,33
 300 2 300 2 272 0 c 1,34,-1
 60 0 l 1,35,36
 31 2 31 2 31 25 c 0,37,38
 31 49 31 49 60 50 c 1,39,-1
 134 50 l 1,40,-1
 134 460 l 1,41,-1
 47 460 l 1,42,43
 20 462 20 462 20 485 c 256,44,45
 20 508 20 508 48 511 c 1,46,-1
 198 511 l 1,47,-1
 198 396 l 1,48,49
 240 520 240 520 362 520 c 0,50,51
 427 520 427 520 457 469 c 0,52,53
 475 438 475 438 475 409 c 1,54,55
 475 427 475 427 507 463 c 0,56,57
 557 519 557 519 641 519 c 0,58,59
 729 519 729 519 761 431 c 0,60,61
 774 394 774 394 776 343 c 1,62,-1
 776 50 l 1,63,-1
 849 50 l 1,64,65
 878 48 878 48 878 25 c 256,0,1
EndSplineSet
Validated: 1
EndChar

StartChar: n
Encoding: 110 110 75
Width: 605
Flags: W
LayerCount: 2
Fore
SplineSet
586 25 m 256,0,1
 586 2 586 2 558 0 c 1,2,-1
 426 0 l 1,3,-1
 426 312 l 2,4,5
 426 381 426 381 414 412 c 0,6,7
 394 461 394 461 336 461 c 0,8,9
 267 461 267 461 229 388 c 0,10,11
 199 330 199 330 198 253 c 1,12,-1
 198 50 l 1,13,-1
 272 50 l 1,14,15
 299 49 299 49 299 25 c 0,16,17
 299 2 299 2 272 0 c 1,18,-1
 60 0 l 1,19,20
 31 2 31 2 31 25 c 0,21,22
 31 49 31 49 60 50 c 1,23,-1
 134 50 l 1,24,-1
 134 460 l 1,25,-1
 47 460 l 1,26,27
 20 462 20 462 20 485 c 256,28,29
 20 508 20 508 48 511 c 1,30,-1
 198 511 l 1,31,-1
 198 396 l 1,32,33
 238 520 238 520 360 520 c 0,34,35
 446 520 446 520 477 433 c 0,36,37
 491 394 491 394 491 341 c 2,38,-1
 491 50 l 1,39,-1
 557 50 l 1,40,41
 586 48 586 48 586 25 c 256,0,1
EndSplineSet
Validated: 1
EndChar

StartChar: o
Encoding: 111 111 76
Width: 526
Flags: W
LayerCount: 2
Fore
SplineSet
475 258 m 0,0,1
 475 119 475 119 409 48 c 0,2,3
 353 -11 353 -11 264 -11 c 256,4,5
 175 -11 175 -11 118 48 c 0,6,7
 51 119 51 119 51 258 c 0,8,9
 51 391 51 391 126 464 c 0,10,11
 186 522 186 522 264 522 c 256,12,13
 342 522 342 522 402 464 c 1,14,15
 475 391 475 391 475 258 c 0,0,1
404 258 m 0,16,17
 404 369 404 369 352 427 c 1,18,19
 313 472 313 472 263 472 c 0,20,21
 209 472 209 472 171 428 c 0,22,23
 121 372 121 372 121 257 c 0,24,25
 121 131 121 131 176 76 c 0,26,27
 212 39 212 39 262 39 c 0,28,29
 323 39 323 39 359 85 c 0,30,31
 404 142 404 142 404 258 c 0,16,17
EndSplineSet
Validated: 1
EndChar

StartChar: p
Encoding: 112 112 77
Width: 560
Flags: W
LayerCount: 2
Fore
SplineSet
509 241 m 0,0,1
 509 79 509 79 411 19 c 0,2,3
 366 -9 366 -9 310 -9 c 0,4,5
 265 -9 265 -9 228 15 c 0,6,7
 203 32 203 32 182 60 c 1,8,-1
 182 -186 l 1,9,-1
 255 -186 l 1,10,11
 283 -188 283 -188 283 -210 c 0,12,13
 283 -233 283 -233 255 -235 c 1,14,-1
 43 -235 l 1,15,16
 14 -233 14 -233 14 -210 c 0,17,18
 14 -188 14 -188 43 -186 c 1,19,-1
 117 -186 l 1,20,-1
 117 460 l 1,21,-1
 29 460 l 1,22,23
 2 462 2 462 2 485 c 256,24,25
 2 508 2 508 30 511 c 1,26,-1
 182 511 l 1,27,-1
 182 424 l 1,28,29
 190 457 190 457 229 485 c 0,30,31
 272 517 272 517 323 517 c 0,32,33
 382 517 382 517 426 482 c 0,34,35
 509 415 509 415 509 241 c 0,0,1
443 254 m 0,36,37
 443 338 443 338 414 397 c 0,38,39
 381 466 381 466 314 466 c 0,40,41
 265 466 265 466 227 427.5 c 128,-1,42
 189 389 189 389 185 340 c 0,43,44
 183 316 183 316 181 303 c 1,45,-1
 182 153 l 2,46,47
 183 143 183 143 188 123 c 1,48,49
 204 83 204 83 241 61 c 0,50,51
 272 42 272 42 307 42 c 0,52,53
 378 42 378 42 414 104 c 0,54,55
 444 156 444 156 443 254 c 0,36,37
EndSplineSet
Validated: 33
EndChar

StartChar: q
Encoding: 113 113 78
Width: 551
Flags: W
LayerCount: 2
Fore
SplineSet
50 244 m 0,0,1
 50 401 50 401 128 472 c 0,2,3
 179 518 179 518 243 518 c 0,4,5
 333 518 333 518 377 441 c 1,6,-1
 377 451 l 2,7,8
 377 464 377 464 383.5 485.5 c 128,-1,9
 390 507 390 507 395 512 c 1,10,-1
 463 512 l 1,11,12
 456 502 456 502 449 473 c 128,-1,13
 442 444 442 444 442 427 c 2,14,-1
 442 -185 l 1,15,-1
 516 -185 l 1,16,17
 545 -187 545 -187 545 -209 c 0,18,19
 545 -232 545 -232 516 -234 c 1,20,-1
 304 -234 l 1,21,22
 276 -232 276 -232 276 -209 c 0,23,24
 276 -187 276 -187 304 -185 c 1,25,-1
 377 -185 l 1,26,-1
 377 66 l 1,27,28
 371 56 371 56 364 48 c 0,29,30
 346 28 346 28 327 17 c 0,31,32
 281 -8 281 -8 244 -8 c 1,33,34
 190 -11 190 -11 136 30 c 0,35,36
 50 95 50 95 50 244 c 0,0,1
250 467 m 0,37,38
 176 467 176 467 142 388 c 0,39,40
 117 331 117 331 117 247 c 0,41,42
 117 177 117 177 140 125 c 0,43,44
 174 47 174 47 251 47 c 0,45,46
 295 47 295 47 333 80 c 0,47,48
 377 118 377 118 377 173 c 2,49,-1
 377 320 l 2,50,51
 377 393 377 393 332 434 c 0,52,53
 296 467 296 467 250 467 c 0,37,38
EndSplineSet
Validated: 33
EndChar

StartChar: r
Encoding: 114 114 79
Width: 436
Flags: W
LayerCount: 2
Fore
SplineSet
428 395 m 1,0,1
 406 367 406 367 401 367 c 0,2,3
 376 367 376 367 375 395 c 1,4,-1
 375 456 l 1,5,6
 352 468 352 468 334 468 c 0,7,8
 240 468 240 468 210 341 c 0,9,10
 197 289 197 289 198 215 c 1,11,-1
 198 50 l 1,12,-1
 283 50 l 1,13,14
 311 49 311 49 311 25 c 0,15,16
 311 2 311 2 283 0 c 1,17,-1
 60 0 l 1,18,19
 31 2 31 2 31 25 c 0,20,21
 31 49 31 49 60 50 c 1,22,-1
 135 50 l 1,23,-1
 135 460 l 1,24,-1
 47 460 l 1,25,26
 20 462 20 462 20 485 c 256,27,28
 20 508 20 508 48 511 c 1,29,-1
 198 511 l 1,30,-1
 198 404 l 1,31,32
 232 520 232 520 341 520 c 0,33,34
 400 520 400 520 428 489 c 1,35,-1
 428 395 l 1,0,1
EndSplineSet
Validated: 33
EndChar

StartChar: s
Encoding: 115 115 80
Width: 402
Flags: W
LayerCount: 2
Fore
SplineSet
222 523 m 0,0,1
 292 523 292 523 351 484 c 1,2,-1
 351 400 l 1,3,4
 347 372 347 372 324 372 c 0,5,6
 300 372 300 372 298 400 c 1,7,-1
 298 455 l 1,8,9
 255 474 255 474 223 474 c 0,10,11
 188 474 188 474 159 455 c 0,12,13
 122 430 122 430 122 384 c 0,14,15
 122 337 122 337 174 309 c 1,16,17
 220 290 220 290 266 271 c 1,18,19
 366 224 366 224 366 123 c 0,20,21
 366 68 366 68 312 26 c 0,22,23
 265 -11 265 -11 196 -12 c 0,24,25
 95 -13 95 -13 41 41 c 1,26,-1
 41 132 l 1,27,28
 45 160 45 160 68 160 c 0,29,30
 92 160 92 160 94 132 c 1,31,-1
 94 70 l 1,32,33
 103 61 103 61 129 52 c 0,34,35
 161 40 161 40 193 40 c 0,36,37
 239 40 239 40 269 65 c 128,-1,38
 299 90 299 90 299 125 c 0,39,40
 299 175 299 175 245 210 c 0,41,42
 239 213 239 213 172 243 c 0,43,44
 122 265 122 265 110 274 c 0,45,46
 57 314 57 314 57 382 c 0,47,48
 57 469 57 469 137 505 c 0,49,50
 179 523 179 523 222 523 c 0,0,1
EndSplineSet
Validated: 33
EndChar

StartChar: t
Encoding: 116 116 81
Width: 340
Flags: W
LayerCount: 2
Fore
SplineSet
5 485 m 0,0,1
 5 509 5 509 33 511 c 1,2,-1
 91 511 l 1,3,-1
 91 644 l 2,4,5
 91 658 91 658 103 658 c 2,6,-1
 143 658 l 2,7,8
 155 658 155 658 155 645 c 2,9,-1
 155 511 l 1,10,-1
 281 511 l 1,11,12
 309 509 309 509 309 485 c 0,13,14
 309 462 309 462 282 460 c 1,15,-1
 155 460 l 1,16,-1
 155 143 l 2,17,18
 155 102 155 102 159 88 c 0,19,20
 172 44 172 44 220 44 c 0,21,22
 270 44 270 44 299 62 c 0,23,24
 310 69 310 69 313 60 c 1,25,-1
 329 36 l 2,26,27
 334 27 334 27 324 18 c 0,28,29
 287 -11 287 -11 213 -11 c 0,30,31
 128 -11 128 -11 101 54 c 0,32,33
 88 86 88 86 91 122 c 1,34,-1
 91 460 l 1,35,-1
 32 460 l 1,36,37
 5 463 5 463 5 485 c 0,0,1
EndSplineSet
Validated: 33
EndChar

StartChar: u
Encoding: 117 117 82
Width: 595
Flags: W
LayerCount: 2
Fore
SplineSet
575 25 m 0,0,1
 575 1 575 1 547 0 c 1,2,-1
 397 0 l 1,3,-1
 397 69 l 1,4,5
 351 -10 351 -10 257 -10 c 0,6,7
 165 -10 165 -10 129 74 c 0,8,9
 110 118 110 118 110 167 c 2,10,-1
 110 460 l 1,11,-1
 31 460 l 1,12,13
 2 462 2 462 2 485 c 256,14,15
 2 508 2 508 31 511 c 1,16,-1
 174 511 l 1,17,-1
 174 198 l 2,18,19
 174 138 174 138 183 110 c 0,20,21
 204 49 204 49 266 49 c 0,22,23
 361 49 361 49 388 147 c 0,24,25
 397 179 397 179 397 256 c 2,26,-1
 397 460 l 1,27,-1
 317 460 l 1,28,29
 289 462 289 462 289 485 c 256,30,31
 289 508 289 508 318 511 c 1,32,-1
 460 511 l 1,33,-1
 461 50 l 1,34,-1
 547 50 l 1,35,36
 575 48 575 48 575 25 c 0,0,1
EndSplineSet
Validated: 1
EndChar

StartChar: v
Encoding: 118 118 83
Width: 597
Flags: W
LayerCount: 2
Fore
SplineSet
582 485 m 0,0,1
 582 461 582 461 553 460 c 1,2,-1
 494 460 l 1,3,-1
 326 11 l 1,4,5
 314 -13 314 -13 293 -13 c 0,6,7
 271 -13 271 -13 260 11 c 1,8,-1
 95 460 l 1,9,-1
 43 460 l 1,10,11
 15 461 15 461 15 485 c 0,12,13
 15 508 15 508 43 510 c 1,14,-1
 218 510 l 1,15,16
 247 508 247 508 247 485 c 0,17,18
 247 461 247 461 218 460 c 1,19,-1
 162 460 l 1,20,-1
 294 82 l 1,21,-1
 428 460 l 1,22,-1
 377 460 l 1,23,24
 350 461 350 461 350 485 c 0,25,26
 350 508 350 508 377 510 c 1,27,-1
 553 510 l 1,28,29
 582 508 582 508 582 485 c 0,0,1
EndSplineSet
Validated: 1
EndChar

StartChar: w
Encoding: 119 119 84
Width: 856
Flags: W
LayerCount: 2
Fore
SplineSet
832 485 m 0,0,1
 832 461 832 461 802 460 c 1,2,-1
 743 460 l 1,3,-1
 589 11 l 2,4,5
 580 -13 580 -13 556 -13 c 0,6,7
 530 -13 530 -13 523 11 c 2,8,-1
 422 331 l 1,9,-1
 314 11 l 2,10,11
 306 -13 306 -13 281 -13 c 0,12,13
 255 -13 255 -13 248 11 c 2,14,-1
 107 460 l 1,15,-1
 52 460 l 1,16,17
 24 461 24 461 24 485 c 0,18,19
 24 508 24 508 52 510 c 1,20,-1
 230 510 l 1,21,22
 259 508 259 508 259 485 c 0,23,24
 259 461 259 461 230 460 c 1,25,-1
 168 460 l 1,26,-1
 282 83 l 1,27,-1
 397 445 l 2,28,29
 405 470 405 470 422 470 c 0,30,31
 438 470 438 470 446 445 c 2,32,-1
 557 83 l 1,33,-1
 681 460 l 1,34,-1
 623 460 l 1,35,36
 596 461 596 461 596 485 c 0,37,38
 596 508 596 508 623 510 c 1,39,-1
 802 510 l 1,40,41
 832 508 832 508 832 485 c 0,0,1
EndSplineSet
Validated: 1
EndChar

StartChar: x
Encoding: 120 120 85
Width: 574
Flags: W
LayerCount: 2
Fore
SplineSet
516 511 m 1,0,1
 545 508 545 508 545 485 c 256,2,3
 545 462 545 462 516 461 c 1,4,-1
 468 461 l 1,5,-1
 322 265 l 1,6,-1
 468 50 l 1,7,-1
 526 50 l 1,8,9
 553 49 553 49 553 25 c 0,10,11
 553 2 553 2 526 0 c 1,12,-1
 363 0 l 1,13,14
 334 2 334 2 334 25 c 0,15,16
 334 49 334 49 363 50 c 1,17,-1
 399 50 l 1,18,-1
 288 219 l 1,19,-1
 175 50 l 1,20,-1
 215 50 l 1,21,22
 243 49 243 49 243 25 c 0,23,24
 243 2 243 2 215 0 c 1,25,-1
 49 0 l 1,26,27
 21 2 21 2 21 25 c 0,28,29
 21 49 21 49 49 50 c 1,30,-1
 107 50 l 1,31,-1
 252 265 l 1,32,-1
 107 461 l 1,33,-1
 62 461 l 1,34,35
 34 462 34 462 34 485 c 0,36,37
 34 509 34 509 62 511 c 1,38,-1
 219 511 l 1,39,40
 247 508 247 508 247 485 c 256,41,42
 247 462 247 462 219 461 c 1,43,-1
 175 461 l 1,44,-1
 288 309 l 1,45,-1
 399 461 l 1,46,-1
 356 461 l 1,47,48
 328 462 328 462 328 485 c 0,49,50
 328 509 328 509 356 511 c 1,51,-1
 516 511 l 1,0,1
EndSplineSet
Validated: 1
EndChar

StartChar: y
Encoding: 121 121 86
Width: 591
Flags: W
LayerCount: 2
Fore
SplineSet
581 485 m 0,0,1
 581 461 581 461 552 460 c 1,2,-1
 491 460 l 1,3,-1
 283 -125 l 1,4,5
 268 -174 268 -174 234 -206 c 0,6,7
 197 -240 197 -240 146 -240 c 0,8,9
 85 -240 85 -240 38 -209 c 0,10,11
 27 -202 27 -202 33 -192 c 2,12,-1
 49 -164 l 2,13,14
 52 -158 52 -158 57 -158 c 0,15,16
 61 -158 61 -158 68 -162 c 0,17,18
 105 -184 105 -184 153 -184 c 0,19,20
 205 -184 205 -184 227 -111 c 2,21,-1
 261 0 l 1,22,-1
 92 460 l 1,23,-1
 40 460 l 1,24,25
 12 461 12 461 12 485 c 0,26,27
 12 508 12 508 40 510 c 1,28,-1
 218 510 l 1,29,30
 247 508 247 508 247 485 c 0,31,32
 247 461 247 461 218 460 c 1,33,-1
 159 460 l 1,34,-1
 293 85 l 1,35,-1
 425 460 l 1,36,-1
 373 460 l 1,37,38
 346 461 346 461 346 485 c 0,39,40
 346 508 346 508 373 510 c 1,41,-1
 552 510 l 1,42,43
 581 508 581 508 581 485 c 0,0,1
EndSplineSet
Validated: 1
EndChar

StartChar: z
Encoding: 122 122 87
Width: 448
Flags: W
LayerCount: 2
Fore
SplineSet
418 488 m 0,0,1
 418 480 418 480 404 461 c 2,2,-1
 119 56 l 1,3,-1
 362 56 l 1,4,-1
 362 126 l 1,5,6
 364 154 364 154 388 154 c 0,7,8
 411 154 411 154 415 126 c 1,9,-1
 415 0 l 1,10,-1
 59 0 l 1,11,12
 30 1 30 1 30 24 c 0,13,14
 30 33 30 33 45 50 c 1,15,-1
 331 453 l 1,16,-1
 105 453 l 1,17,-1
 105 378 l 1,18,19
 101 350 101 350 78 350 c 256,20,21
 55 350 55 350 51 378 c 1,22,-1
 51 511 l 1,23,-1
 391 511 l 2,24,25
 418 511 418 511 418 488 c 0,0,1
EndSplineSet
Validated: 1
EndChar

StartChar: Adieresis
Encoding: 196 196 88
Width: 741
Flags: W
LayerCount: 2
Fore
SplineSet
505 810 m 256,0,1
 505 792 505 792 492.5 779 c 128,-1,2
 480 766 480 766 462 766 c 0,3,4
 443 766 443 766 430.5 779 c 128,-1,5
 418 792 418 792 418 810 c 256,6,7
 418 828 418 828 430.5 841 c 128,-1,8
 443 854 443 854 462 854 c 0,9,10
 480 854 480 854 492.5 841 c 128,-1,11
 505 828 505 828 505 810 c 256,0,1
296 810 m 256,12,13
 296 792 296 792 283.5 779 c 128,-1,14
 271 766 271 766 253 766 c 0,15,16
 234 766 234 766 221.5 779 c 128,-1,17
 209 792 209 792 209 810 c 256,18,19
 209 828 209 828 221.5 841 c 128,-1,20
 234 854 234 854 253 854 c 0,21,22
 271 854 271 854 283.5 841 c 128,-1,23
 296 828 296 828 296 810 c 256,12,13
719 25 m 256,24,25
 719 2 719 2 691 0 c 1,26,-1
 478 0 l 1,27,28
 450 2 450 2 450 25 c 256,29,30
 450 48 450 48 478 50 c 1,31,-1
 555 50 l 1,32,-1
 496 224 l 1,33,-1
 240 224 l 1,34,-1
 186 50 l 1,35,-1
 263 50 l 1,36,37
 291 48 291 48 291 25 c 256,38,39
 291 2 291 2 263 0 c 1,40,-1
 50 0 l 1,41,42
 22 2 22 2 22 25 c 256,43,44
 22 48 22 48 49 50 c 1,45,-1
 122 50 l 1,46,-1
 327 721 l 1,47,48
 337 746 337 746 358 746 c 0,49,50
 386 746 386 746 391 723 c 1,51,-1
 620 50 l 1,52,-1
 692 50 l 1,53,54
 719 48 719 48 719 25 c 256,24,25
480 277 m 1,55,-1
 359 623 l 1,56,-1
 252 277 l 1,57,-1
 480 277 l 1,55,-1
EndSplineSet
Validated: 1
EndChar

StartChar: Odieresis
Encoding: 214 214 89
Width: 618
Flags: W
LayerCount: 2
Fore
SplineSet
458 835 m 256,0,1
 458 817 458 817 445.5 804 c 128,-1,2
 433 791 433 791 415 791 c 0,3,4
 396 791 396 791 383.5 804 c 128,-1,5
 371 817 371 817 371 835 c 256,6,7
 371 853 371 853 383.5 866 c 128,-1,8
 396 879 396 879 415 879 c 0,9,10
 433 879 433 879 445.5 866 c 128,-1,11
 458 853 458 853 458 835 c 256,0,1
249 835 m 256,12,13
 249 817 249 817 236.5 804 c 128,-1,14
 224 791 224 791 206 791 c 0,15,16
 187 791 187 791 174.5 804 c 128,-1,17
 162 817 162 817 162 835 c 256,18,19
 162 853 162 853 174.5 866 c 128,-1,20
 187 879 187 879 206 879 c 0,21,22
 224 879 224 879 236.5 866 c 128,-1,23
 249 853 249 853 249 835 c 256,12,13
588 365 m 0,24,25
 588 192 588 192 512.5 89 c 128,-1,26
 437 -14 437 -14 309 -14 c 0,27,28
 179 -14 179 -14 104.5 88.5 c 128,-1,29
 30 191 30 191 30 365 c 0,30,31
 30 537 30 537 108 642.5 c 128,-1,32
 186 748 186 748 309 748 c 0,33,34
 425 748 425 748 501 658 c 0,35,36
 588 555 588 555 588 365 c 0,24,25
514 370 m 0,37,38
 514 529 514 529 449 615 c 0,39,40
 394 689 394 689 309 689 c 256,41,42
 224 689 224 689 168 615 c 0,43,44
 103 529 103 529 103 370 c 256,45,46
 103 211 103 211 169 121 c 0,47,48
 226 44 226 44 308 44 c 0,49,50
 392 44 392 44 449 121 c 0,51,52
 514 210 514 210 514 370 c 0,37,38
EndSplineSet
Validated: 1
EndChar

StartChar: Udieresis
Encoding: 220 220 90
Width: 689
Flags: W
LayerCount: 2
Fore
SplineSet
490 810 m 256,0,1
 490 792 490 792 477.5 779 c 128,-1,2
 465 766 465 766 447 766 c 0,3,4
 428 766 428 766 415.5 779 c 128,-1,5
 403 792 403 792 403 810 c 256,6,7
 403 828 403 828 415.5 841 c 128,-1,8
 428 854 428 854 447 854 c 0,9,10
 465 854 465 854 477.5 841 c 128,-1,11
 490 828 490 828 490 810 c 256,0,1
281 810 m 256,12,13
 281 792 281 792 268.5 779 c 128,-1,14
 256 766 256 766 238 766 c 0,15,16
 219 766 219 766 206.5 779 c 128,-1,17
 194 792 194 792 194 810 c 256,18,19
 194 828 194 828 206.5 841 c 128,-1,20
 219 854 219 854 238 854 c 0,21,22
 256 854 256 854 268.5 841 c 128,-1,23
 281 828 281 828 281 810 c 256,12,13
669 707 m 0,24,25
 669 685 669 685 641 683 c 1,26,-1
 568 683 l 1,27,-1
 568 220 l 2,28,29
 568 117 568 117 512 55 c 0,30,31
 452 -11 452 -11 341 -11 c 256,32,33
 230 -11 230 -11 172 57 c 0,34,35
 120 119 120 119 120 220 c 2,36,-1
 120 683 l 1,37,-1
 48 683 l 1,38,39
 20 685 20 685 20 707 c 0,40,41
 20 731 20 731 48 733 c 1,42,-1
 261 733 l 1,43,44
 289 731 289 731 289 707 c 0,45,46
 289 685 289 685 261 683 c 1,47,-1
 188 683 l 1,48,-1
 188 220 l 2,49,50
 188 50 188 50 341 50 c 0,51,52
 500 50 500 50 500 220 c 2,53,-1
 500 683 l 1,54,-1
 428 683 l 1,55,56
 400 685 400 685 400 707 c 0,57,58
 400 731 400 731 428 733 c 1,59,-1
 641 733 l 1,60,61
 669 731 669 731 669 707 c 0,24,25
EndSplineSet
Validated: 1
EndChar

StartChar: aacute
Encoding: 225 225 91
Width: 511
Flags: W
LayerCount: 2
Fore
SplineSet
321 707 m 1,0,1
 329 711 329 711 337 711 c 0,2,3
 352 711 352 711 360 698 c 0,4,5
 364 691 364 691 364 685 c 0,6,7
 364 671 364 671 349 660 c 1,8,-1
 161 549 l 2,9,10
 153 545 153 545 145 545 c 0,11,12
 131 545 131 545 124 558 c 0,13,14
 120 564 120 564 120 571 c 0,15,16
 120 585 120 585 133 596 c 1,17,-1
 321 707 l 1,18,-1
 321 707 l 1,0,1
506 25 m 0,19,20
 506 2 506 2 478 0 c 1,21,-1
 325 0 l 1,22,-1
 325 55 l 1,23,24
 318 35 318 35 285 14 c 0,25,26
 246 -11 246 -11 205 -11 c 0,27,28
 121 -11 121 -11 78 34 c 0,29,30
 37 76 37 76 40 144 c 0,31,32
 47 312 47 312 326 312 c 1,33,34
 326 402 326 402 319 425 c 0,35,36
 302 478 302 478 235 478 c 0,37,38
 126 478 126 478 126 394 c 0,39,40
 126 382 126 382 117 383 c 1,41,-1
 79 383 l 2,42,43
 68 383 68 383 68 392 c 0,44,45
 68 439 68 439 104 475 c 1,46,47
 149 522 149 522 232 522 c 0,48,49
 388 522 388 522 388 362 c 2,50,-1
 388 50 l 1,51,-1
 478 50 l 1,52,53
 506 49 506 49 506 25 c 0,19,20
325 257 m 1,54,55
 236 257 236 257 192 245 c 0,56,57
 101 219 101 219 101 140 c 0,58,59
 101 39 101 39 207 39 c 0,60,61
 253 39 253 39 291 76 c 0,62,63
 325 110 325 110 325 141 c 2,64,-1
 325 257 l 1,54,55
EndSplineSet
Validated: 37
EndChar

StartChar: agrave
Encoding: 224 224 92
Width: 511
Flags: W
LayerCount: 2
Fore
SplineSet
176 707 m 1,0,-1
 364 596 l 1,1,2
 377 585 377 585 377 571 c 0,3,4
 377 564 377 564 373 558 c 0,5,6
 366 545 366 545 352 545 c 0,7,8
 344 545 344 545 336 549 c 2,9,-1
 148 660 l 1,10,11
 133 671 133 671 133 685 c 0,12,13
 133 691 133 691 137 698 c 0,14,15
 145 711 145 711 160 711 c 0,16,17
 168 711 168 711 176 707 c 1,18,-1
 176 707 l 1,0,-1
506 25 m 0,19,20
 506 2 506 2 478 0 c 1,21,-1
 325 0 l 1,22,-1
 325 55 l 1,23,24
 318 35 318 35 285 14 c 0,25,26
 246 -11 246 -11 205 -11 c 0,27,28
 121 -11 121 -11 78 34 c 0,29,30
 37 76 37 76 40 144 c 0,31,32
 47 312 47 312 326 312 c 1,33,34
 326 402 326 402 319 425 c 0,35,36
 302 478 302 478 235 478 c 0,37,38
 126 478 126 478 126 394 c 0,39,40
 126 382 126 382 117 383 c 1,41,-1
 79 383 l 2,42,43
 68 383 68 383 68 392 c 0,44,45
 68 439 68 439 104 475 c 1,46,47
 149 522 149 522 232 522 c 0,48,49
 388 522 388 522 388 362 c 2,50,-1
 388 50 l 1,51,-1
 478 50 l 1,52,53
 506 49 506 49 506 25 c 0,19,20
325 257 m 1,54,55
 236 257 236 257 192 245 c 0,56,57
 101 219 101 219 101 140 c 0,58,59
 101 39 101 39 207 39 c 0,60,61
 253 39 253 39 291 76 c 0,62,63
 325 110 325 110 325 141 c 2,64,-1
 325 257 l 1,54,55
EndSplineSet
Validated: 37
EndChar

StartChar: acircumflex
Encoding: 226 226 93
Width: 511
Flags: W
LayerCount: 2
Fore
SplineSet
412 565 m 0,0,1
 412 562 412 562 409 558 c 2,2,-1
 397 536 l 2,3,4
 393 528 393 528 389 528 c 0,5,6
 387 528 387 528 382 532 c 2,7,-1
 230 653 l 1,8,-1
 77 532 l 1,9,10
 71 529 71 529 70 529 c 0,11,12
 66 529 66 529 62 536 c 2,13,-1
 50 558 l 1,14,15
 48 565 48 565 48 565 c 1,16,17
 48 569 48 569 53 573 c 2,18,-1
 222 707 l 2,19,20
 226 711 226 711 230 711 c 0,21,22
 233 711 233 711 237 707 c 2,23,-1
 406 573 l 1,24,25
 412 570 412 570 412 565 c 0,0,1
506 25 m 0,26,27
 506 2 506 2 478 0 c 1,28,-1
 325 0 l 1,29,-1
 325 55 l 1,30,31
 318 35 318 35 285 14 c 0,32,33
 246 -11 246 -11 205 -11 c 0,34,35
 121 -11 121 -11 78 34 c 0,36,37
 37 76 37 76 40 144 c 0,38,39
 47 312 47 312 326 312 c 1,40,41
 326 402 326 402 319 425 c 0,42,43
 302 478 302 478 235 478 c 0,44,45
 126 478 126 478 126 394 c 0,46,47
 126 382 126 382 117 383 c 1,48,-1
 79 383 l 2,49,50
 68 383 68 383 68 392 c 0,51,52
 68 439 68 439 104 475 c 1,53,54
 149 522 149 522 232 522 c 0,55,56
 388 522 388 522 388 362 c 2,57,-1
 388 50 l 1,58,-1
 478 50 l 1,59,60
 506 49 506 49 506 25 c 0,26,27
325 257 m 1,61,62
 236 257 236 257 192 245 c 0,63,64
 101 219 101 219 101 140 c 0,65,66
 101 39 101 39 207 39 c 0,67,68
 253 39 253 39 291 76 c 0,69,70
 325 110 325 110 325 141 c 2,71,-1
 325 257 l 1,61,62
EndSplineSet
Validated: 33
EndChar

StartChar: adieresis
Encoding: 228 228 94
Width: 511
Flags: W
LayerCount: 2
Fore
SplineSet
379 631 m 260,0,1
 379 613 379 613 366.5 600 c 132,-1,2
 354 587 354 587 336 587 c 260,3,4
 318 587 318 587 305 600 c 132,-1,5
 292 613 292 613 292 631 c 260,6,7
 292 649 292 649 305 662 c 132,-1,8
 318 675 318 675 336 675 c 260,9,10
 354 675 354 675 366.5 662 c 132,-1,11
 379 649 379 649 379 631 c 260,0,1
190 631 m 260,12,13
 190 613 190 613 177.5 600 c 132,-1,14
 165 587 165 587 147 587 c 4,15,16
 128 587 128 587 115.5 600 c 132,-1,17
 103 613 103 613 103 631 c 260,18,19
 103 649 103 649 115.5 662 c 132,-1,20
 128 675 128 675 147 675 c 4,21,22
 165 675 165 675 177.5 662 c 132,-1,23
 190 649 190 649 190 631 c 260,12,13
511 25 m 0,24,25
 511 2 511 2 483 0 c 1,26,-1
 330 0 l 1,27,-1
 330 44 l 1,28,29
 318 24 318 24 287 8 c 0,30,31
 251 -11 251 -11 210 -11 c 0,32,33
 158 -11 158 -11 120 5 c 0,34,35
 36 41 36 41 40 144 c 0,36,37
 47 312 47 312 331 312 c 1,38,39
 331 402 331 402 324 425 c 0,40,41
 307 478 307 478 240 478 c 0,42,43
 131 478 131 478 131 394 c 0,44,45
 131 382 131 382 122 383 c 1,46,-1
 84 383 l 2,47,48
 73 383 73 383 73 392 c 0,49,50
 73 439 73 439 109 475 c 1,51,52
 154 522 154 522 237 522 c 0,53,54
 393 522 393 522 393 362 c 2,55,-1
 393 50 l 1,56,-1
 483 50 l 1,57,58
 511 49 511 49 511 25 c 0,24,25
330 257 m 1,59,60
 239 257 239 257 195 245 c 0,61,62
 101 219 101 219 101 140 c 0,63,64
 101 39 101 39 212 39 c 0,65,66
 259 39 259 39 295 71 c 1,67,68
 330 100 330 100 330 135 c 2,69,-1
 330 257 l 1,59,60
EndSplineSet
Validated: 33
EndChar

StartChar: ccedilla
Encoding: 231 231 95
Width: 488
Flags: W
LayerCount: 2
Fore
SplineSet
265 524 m 0,0,1
 361 524 361 524 424 474 c 1,2,-1
 424 393 l 1,3,4
 420 365 420 365 397 365 c 0,5,6
 373 365 373 365 371 393 c 1,7,-1
 371 450 l 1,8,9
 330 474 330 474 264 474 c 0,10,11
 211 474 211 474 172 429 c 0,12,13
 121 370 121 370 121 255 c 0,14,15
 121 131 121 131 175 76 c 0,16,17
 209 42 209 42 254 42 c 256,18,19
 299 42 299 42 334 69 c 0,20,21
 375 101 375 101 375 154 c 0,22,23
 375 168 375 168 386 168 c 2,24,-1
 430 168 l 2,25,26
 437 168 437 168 437 156 c 0,27,28
 437 110 437 110 410 67 c 0,29,30
 368 -1 368 -1 278 -10 c 1,31,-1
 272 -11 l 1,32,33
 271 -23 271 -23 270 -52 c 1,34,35
 344 -59 344 -59 344 -114 c 0,36,37
 344 -146 344 -146 317 -164 c 0,38,39
 294 -180 294 -180 261 -180 c 0,40,41
 201 -180 201 -180 201 -165 c 0,42,43
 201 -163 201 -163 202 -161 c 1,44,45
 202 -158 202 -158 202 -157 c 2,46,-1
 205 -139 l 1,47,48
 207 -134 207 -134 210 -134 c 1,49,50
 208 -134 208 -134 225 -138 c 128,-1,51
 242 -142 242 -142 262 -142 c 0,52,53
 302 -142 302 -142 302 -115 c 0,54,55
 302 -94 302 -94 263 -89.5 c 128,-1,56
 224 -85 224 -85 224 -73 c 1,57,58
 224 -74 224 -74 225 -60 c 2,59,-1
 228 -11 l 1,60,61
 152 -3 152 -3 105 57 c 0,62,63
 50 128 50 128 50 258 c 0,64,65
 50 392 50 392 127 466 c 0,66,67
 188 524 188 524 265 524 c 0,0,1
EndSplineSet
Validated: 1
EndChar

StartChar: eacute
Encoding: 233 233 96
Width: 489
Flags: W
LayerCount: 2
Fore
SplineSet
321 707 m 1,0,1
 329 711 329 711 337 711 c 0,2,3
 352 711 352 711 360 698 c 0,4,5
 364 691 364 691 364 685 c 0,6,7
 364 671 364 671 349 660 c 1,8,-1
 161 549 l 2,9,10
 153 545 153 545 145 545 c 0,11,12
 131 545 131 545 124 558 c 0,13,14
 120 564 120 564 120 571 c 0,15,16
 120 585 120 585 133 596 c 1,17,-1
 321 707 l 1,18,-1
 321 707 l 1,0,1
439 256 m 1,19,-1
 116 256 l 1,20,21
 116 39 116 39 249 39 c 0,22,23
 359 39 359 39 376 145 c 1,24,25
 376 159 376 159 386 159 c 2,26,-1
 426 159 l 2,27,28
 434 159 434 159 434 147 c 1,29,30
 427 65 427 65 371 24 c 0,31,32
 324 -11 324 -11 250 -11 c 0,33,34
 154 -11 154 -11 101 63 c 0,35,36
 50 134 50 134 50 258 c 0,37,38
 50 391 50 391 120 464 c 0,39,40
 176 522 176 522 248 522 c 0,41,42
 318 522 318 522 367 475 c 0,43,44
 439 407 439 407 439 256 c 1,19,-1
373 310 m 1,45,46
 373 391 373 391 329 436 c 0,47,48
 295 472 295 472 254 472 c 0,49,50
 209 472 209 472 174 439 c 0,51,52
 129 396 129 396 119 310 c 1,53,-1
 373 310 l 1,45,46
EndSplineSet
Validated: 5
EndChar

StartChar: egrave
Encoding: 232 232 97
Width: 489
Flags: W
LayerCount: 2
Fore
SplineSet
172 707 m 1,0,-1
 360 596 l 1,1,2
 373 585 373 585 373 571 c 0,3,4
 373 564 373 564 369 558 c 0,5,6
 362 545 362 545 348 545 c 0,7,8
 340 545 340 545 332 549 c 2,9,-1
 144 660 l 1,10,11
 129 671 129 671 129 685 c 0,12,13
 129 691 129 691 133 698 c 0,14,15
 141 711 141 711 156 711 c 0,16,17
 164 711 164 711 172 707 c 1,18,-1
 172 707 l 1,0,-1
439 256 m 1,19,-1
 116 256 l 1,20,21
 116 39 116 39 249 39 c 0,22,23
 359 39 359 39 376 145 c 1,24,25
 376 159 376 159 386 159 c 2,26,-1
 426 159 l 2,27,28
 434 159 434 159 434 147 c 1,29,30
 427 65 427 65 371 24 c 0,31,32
 324 -11 324 -11 250 -11 c 0,33,34
 154 -11 154 -11 101 63 c 0,35,36
 50 134 50 134 50 258 c 0,37,38
 50 391 50 391 120 464 c 0,39,40
 176 522 176 522 248 522 c 0,41,42
 318 522 318 522 367 475 c 0,43,44
 439 407 439 407 439 256 c 1,19,-1
373 310 m 1,45,46
 373 391 373 391 329 436 c 0,47,48
 295 472 295 472 254 472 c 0,49,50
 209 472 209 472 174 439 c 0,51,52
 129 396 129 396 119 310 c 1,53,-1
 373 310 l 1,45,46
EndSplineSet
Validated: 5
EndChar

StartChar: ecircumflex
Encoding: 234 234 98
Width: 489
Flags: W
LayerCount: 2
Fore
SplineSet
437 565 m 4,0,1
 437 562 437 562 434 558 c 6,2,-1
 422 536 l 6,3,4
 418 528 418 528 414 528 c 4,5,6
 412 528 412 528 407 532 c 6,7,-1
 255 653 l 5,8,-1
 102 532 l 5,9,10
 96 529 96 529 95 529 c 4,11,12
 91 529 91 529 87 536 c 6,13,-1
 75 558 l 5,14,15
 73 565 73 565 73 565 c 5,16,17
 73 569 73 569 78 573 c 6,18,-1
 247 707 l 6,19,20
 251 711 251 711 255 711 c 4,21,22
 258 711 258 711 262 707 c 6,23,-1
 431 573 l 5,24,25
 437 570 437 570 437 565 c 4,0,1
439 256 m 5,26,-1
 116 256 l 5,27,28
 116 39 116 39 249 39 c 4,29,30
 359 39 359 39 376 145 c 5,31,32
 376 159 376 159 386 159 c 6,33,-1
 426 159 l 6,34,35
 434 159 434 159 434 147 c 5,36,37
 427 65 427 65 371 24 c 4,38,39
 324 -11 324 -11 250 -11 c 4,40,41
 154 -11 154 -11 101 63 c 4,42,43
 50 134 50 134 50 258 c 4,44,45
 50 391 50 391 120 464 c 4,46,47
 176 522 176 522 248 522 c 4,48,49
 318 522 318 522 367 475 c 4,50,51
 439 407 439 407 439 256 c 5,26,-1
373 310 m 5,52,53
 373 391 373 391 329 436 c 4,54,55
 295 472 295 472 254 472 c 4,56,57
 209 472 209 472 174 439 c 4,58,59
 129 396 129 396 119 310 c 5,60,-1
 373 310 l 5,52,53
EndSplineSet
Validated: 1
EndChar

StartChar: iacute
Encoding: 237 237 99
Width: 489
Flags: W
LayerCount: 2
Fore
SplineSet
179 718 m 1,0,1
 187 722 187 722 195 722 c 0,2,3
 210 722 210 722 218 709 c 0,4,5
 222 702 222 702 222 696 c 0,6,7
 222 682 222 682 207 671 c 1,8,-1
 86 602 l 2,9,10
 78 598 78 598 70 598 c 0,11,12
 56 598 56 598 49 611 c 0,13,14
 45 617 45 617 45 624 c 0,15,16
 45 638 45 638 58 649 c 1,17,-1
 179 718 l 1,18,-1
 179 718 l 1,0,1
187 511 m 1,19,-1
 187 50 l 1,20,-1
 262 50 l 1,21,22
 290 49 290 49 290 25 c 0,23,24
 290 2 290 2 262 0 c 1,25,-1
 49 0 l 1,26,27
 21 3 21 3 21 25 c 0,28,29
 21 49 21 49 49 50 c 1,30,-1
 124 50 l 1,31,-1
 124 460 l 1,32,-1
 37 460 l 1,33,34
 10 462 10 462 10 484 c 0,35,36
 10 508 10 508 38 511 c 1,37,-1
 187 511 l 1,19,-1
EndSplineSet
Validated: 5
EndChar

StartChar: igrave
Encoding: 236 236 100
Width: 489
Flags: W
LayerCount: 2
Fore
SplineSet
70 718 m 1,0,-1
 191 649 l 1,1,2
 204 638 204 638 204 624 c 0,3,4
 204 617 204 617 200 611 c 0,5,6
 193 598 193 598 179 598 c 0,7,8
 171 598 171 598 163 602 c 2,9,-1
 42 671 l 1,10,11
 27 682 27 682 27 696 c 0,12,13
 27 702 27 702 31 709 c 0,14,15
 39 722 39 722 54 722 c 0,16,17
 62 722 62 722 70 718 c 1,18,-1
 70 718 l 1,0,-1
187 511 m 1,19,-1
 187 50 l 1,20,-1
 262 50 l 1,21,22
 290 49 290 49 290 25 c 0,23,24
 290 2 290 2 262 0 c 1,25,-1
 49 0 l 1,26,27
 21 3 21 3 21 25 c 0,28,29
 21 49 21 49 49 50 c 1,30,-1
 124 50 l 1,31,-1
 124 460 l 1,32,-1
 37 460 l 1,33,34
 10 462 10 462 10 484 c 0,35,36
 10 508 10 508 38 511 c 1,37,-1
 187 511 l 1,19,-1
EndSplineSet
Validated: 5
EndChar

StartChar: oacute
Encoding: 243 243 102
Width: 526
Flags: W
LayerCount: 2
Fore
SplineSet
321 707 m 1,0,1
 329 711 329 711 337 711 c 0,2,3
 352 711 352 711 360 698 c 0,4,5
 364 691 364 691 364 685 c 0,6,7
 364 671 364 671 349 660 c 1,8,-1
 161 549 l 2,9,10
 153 545 153 545 145 545 c 0,11,12
 131 545 131 545 124 558 c 0,13,14
 120 564 120 564 120 571 c 0,15,16
 120 585 120 585 133 596 c 1,17,-1
 321 707 l 1,18,-1
 321 707 l 1,0,1
475 258 m 0,19,20
 475 119 475 119 409 48 c 0,21,22
 353 -11 353 -11 264 -11 c 256,23,24
 175 -11 175 -11 118 48 c 0,25,26
 51 119 51 119 51 258 c 0,27,28
 51 391 51 391 126 464 c 0,29,30
 186 522 186 522 264 522 c 256,31,32
 342 522 342 522 402 464 c 1,33,34
 475 391 475 391 475 258 c 0,19,20
404 258 m 0,35,36
 404 369 404 369 352 427 c 1,37,38
 313 472 313 472 263 472 c 0,39,40
 209 472 209 472 171 428 c 0,41,42
 121 372 121 372 121 257 c 0,43,44
 121 131 121 131 176 76 c 0,45,46
 212 39 212 39 262 39 c 0,47,48
 323 39 323 39 359 85 c 0,49,50
 404 142 404 142 404 258 c 0,35,36
EndSplineSet
Validated: 5
EndChar

StartChar: ograve
Encoding: 242 242 103
Width: 526
Flags: W
LayerCount: 2
Fore
SplineSet
176 707 m 1,0,-1
 364 596 l 1,1,2
 377 585 377 585 377 571 c 0,3,4
 377 564 377 564 373 558 c 0,5,6
 366 545 366 545 352 545 c 0,7,8
 344 545 344 545 336 549 c 2,9,-1
 148 660 l 1,10,11
 133 671 133 671 133 685 c 0,12,13
 133 691 133 691 137 698 c 0,14,15
 145 711 145 711 160 711 c 0,16,17
 168 711 168 711 176 707 c 1,18,-1
 176 707 l 1,0,-1
475 258 m 0,19,20
 475 119 475 119 409 48 c 0,21,22
 353 -11 353 -11 264 -11 c 256,23,24
 175 -11 175 -11 118 48 c 0,25,26
 51 119 51 119 51 258 c 0,27,28
 51 391 51 391 126 464 c 0,29,30
 186 522 186 522 264 522 c 256,31,32
 342 522 342 522 402 464 c 1,33,34
 475 391 475 391 475 258 c 0,19,20
404 258 m 0,35,36
 404 369 404 369 352 427 c 1,37,38
 313 472 313 472 263 472 c 0,39,40
 209 472 209 472 171 428 c 0,41,42
 121 372 121 372 121 257 c 0,43,44
 121 131 121 131 176 76 c 0,45,46
 212 39 212 39 262 39 c 0,47,48
 323 39 323 39 359 85 c 0,49,50
 404 142 404 142 404 258 c 0,35,36
EndSplineSet
Validated: 5
EndChar

StartChar: ocircumflex
Encoding: 244 244 104
Width: 526
Flags: W
LayerCount: 2
Fore
SplineSet
454 565 m 0,0,1
 454 562 454 562 451 558 c 2,2,-1
 439 536 l 2,3,4
 435 528 435 528 431 528 c 0,5,6
 429 528 429 528 424 532 c 2,7,-1
 272 653 l 1,8,-1
 119 532 l 1,9,10
 113 529 113 529 112 529 c 0,11,12
 108 529 108 529 104 536 c 2,13,-1
 92 558 l 1,14,15
 90 565 90 565 90 565 c 1,16,17
 90 569 90 569 95 573 c 2,18,-1
 264 707 l 2,19,20
 268 711 268 711 272 711 c 0,21,22
 275 711 275 711 279 707 c 2,23,-1
 448 573 l 1,24,25
 454 570 454 570 454 565 c 0,0,1
475 258 m 0,26,27
 475 119 475 119 409 48 c 0,28,29
 353 -11 353 -11 264 -11 c 256,30,31
 175 -11 175 -11 118 48 c 0,32,33
 51 119 51 119 51 258 c 0,34,35
 51 391 51 391 126 464 c 0,36,37
 186 522 186 522 264 522 c 256,38,39
 342 522 342 522 402 464 c 1,40,41
 475 391 475 391 475 258 c 0,26,27
404 258 m 0,42,43
 404 369 404 369 352 427 c 1,44,45
 313 472 313 472 263 472 c 0,46,47
 209 472 209 472 171 428 c 0,48,49
 121 372 121 372 121 257 c 0,50,51
 121 131 121 131 176 76 c 0,52,53
 212 39 212 39 262 39 c 0,54,55
 323 39 323 39 359 85 c 0,56,57
 404 142 404 142 404 258 c 0,42,43
EndSplineSet
Validated: 1
EndChar

StartChar: odieresis
Encoding: 246 246 105
Width: 526
Flags: W
LayerCount: 2
Fore
SplineSet
399 631 m 256,0,1
 399 613 399 613 386.5 600 c 128,-1,2
 374 587 374 587 356 587 c 256,3,4
 338 587 338 587 325 600 c 128,-1,5
 312 613 312 613 312 631 c 256,6,7
 312 649 312 649 325 662 c 128,-1,8
 338 675 338 675 356 675 c 256,9,10
 374 675 374 675 386.5 662 c 128,-1,11
 399 649 399 649 399 631 c 256,0,1
210 631 m 256,12,13
 210 613 210 613 197.5 600 c 128,-1,14
 185 587 185 587 167 587 c 0,15,16
 148 587 148 587 135.5 600 c 128,-1,17
 123 613 123 613 123 631 c 256,18,19
 123 649 123 649 135.5 662 c 128,-1,20
 148 675 148 675 167 675 c 0,21,22
 185 675 185 675 197.5 662 c 128,-1,23
 210 649 210 649 210 631 c 256,12,13
475 258 m 0,24,25
 475 119 475 119 409 48 c 0,26,27
 353 -11 353 -11 264 -11 c 256,28,29
 175 -11 175 -11 118 48 c 0,30,31
 51 119 51 119 51 258 c 0,32,33
 51 391 51 391 128 464 c 0,34,35
 189 522 189 522 264 522 c 0,36,37
 340 522 340 522 400 464 c 0,38,39
 475 391 475 391 475 258 c 0,24,25
405 258 m 0,40,41
 405 369 405 369 353 427 c 0,42,43
 313 472 313 472 263 472 c 0,44,45
 209 472 209 472 171 428 c 1,46,47
 120 372 120 372 120 257 c 0,48,49
 120 132 120 132 175 76 c 0,50,51
 212 39 212 39 262 39 c 0,52,53
 323 39 323 39 360 85 c 0,54,55
 405 142 405 142 405 258 c 0,40,41
EndSplineSet
Validated: 1
EndChar

StartChar: uacute
Encoding: 250 250 106
Width: 595
Flags: W
LayerCount: 2
Fore
SplineSet
321 707 m 1,0,1
 329 711 329 711 337 711 c 0,2,3
 352 711 352 711 360 698 c 0,4,5
 364 691 364 691 364 685 c 0,6,7
 364 671 364 671 349 660 c 1,8,-1
 161 549 l 2,9,10
 153 545 153 545 145 545 c 0,11,12
 131 545 131 545 124 558 c 0,13,14
 120 564 120 564 120 571 c 0,15,16
 120 585 120 585 133 596 c 1,17,-1
 321 707 l 1,18,-1
 321 707 l 1,0,1
575 25 m 0,19,20
 575 1 575 1 547 0 c 1,21,-1
 397 0 l 1,22,-1
 397 69 l 1,23,24
 351 -10 351 -10 257 -10 c 0,25,26
 165 -10 165 -10 129 74 c 0,27,28
 110 118 110 118 110 167 c 2,29,-1
 110 460 l 1,30,-1
 31 460 l 1,31,32
 2 462 2 462 2 485 c 256,33,34
 2 508 2 508 31 511 c 1,35,-1
 174 511 l 1,36,-1
 174 198 l 2,37,38
 174 138 174 138 183 110 c 0,39,40
 204 49 204 49 266 49 c 0,41,42
 361 49 361 49 388 147 c 0,43,44
 397 179 397 179 397 256 c 2,45,-1
 397 460 l 1,46,-1
 317 460 l 1,47,48
 289 462 289 462 289 485 c 256,49,50
 289 508 289 508 318 511 c 1,51,-1
 460 511 l 1,52,-1
 461 50 l 1,53,-1
 547 50 l 1,54,55
 575 48 575 48 575 25 c 0,19,20
EndSplineSet
Validated: 5
EndChar

StartChar: ugrave
Encoding: 249 249 107
Width: 595
Flags: W
LayerCount: 2
Fore
SplineSet
172 707 m 1,0,-1
 360 596 l 1,1,2
 373 585 373 585 373 571 c 0,3,4
 373 564 373 564 369 558 c 0,5,6
 362 545 362 545 348 545 c 0,7,8
 340 545 340 545 332 549 c 2,9,-1
 144 660 l 1,10,11
 129 671 129 671 129 685 c 0,12,13
 129 691 129 691 133 698 c 0,14,15
 141 711 141 711 156 711 c 0,16,17
 164 711 164 711 172 707 c 1,18,-1
 172 707 l 1,0,-1
575 25 m 0,19,20
 575 1 575 1 547 0 c 1,21,-1
 397 0 l 1,22,-1
 397 69 l 1,23,24
 351 -10 351 -10 257 -10 c 0,25,26
 165 -10 165 -10 129 74 c 0,27,28
 110 118 110 118 110 167 c 2,29,-1
 110 460 l 1,30,-1
 31 460 l 1,31,32
 2 462 2 462 2 485 c 256,33,34
 2 508 2 508 31 511 c 1,35,-1
 174 511 l 1,36,-1
 174 198 l 2,37,38
 174 138 174 138 183 110 c 0,39,40
 204 49 204 49 266 49 c 0,41,42
 361 49 361 49 388 147 c 0,43,44
 397 179 397 179 397 256 c 2,45,-1
 397 460 l 1,46,-1
 317 460 l 1,47,48
 289 462 289 462 289 485 c 256,49,50
 289 508 289 508 318 511 c 1,51,-1
 460 511 l 1,52,-1
 461 50 l 1,53,-1
 547 50 l 1,54,55
 575 48 575 48 575 25 c 0,19,20
EndSplineSet
Validated: 5
EndChar

StartChar: ucircumflex
Encoding: 251 251 108
Width: 595
Flags: W
LayerCount: 2
Fore
SplineSet
437 565 m 0,0,1
 437 562 437 562 434 558 c 2,2,-1
 422 536 l 2,3,4
 418 528 418 528 414 528 c 0,5,6
 412 528 412 528 407 532 c 2,7,-1
 255 653 l 1,8,-1
 102 532 l 1,9,10
 96 529 96 529 95 529 c 0,11,12
 91 529 91 529 87 536 c 2,13,-1
 75 558 l 1,14,15
 73 565 73 565 73 565 c 1,16,17
 73 569 73 569 78 573 c 2,18,-1
 247 707 l 2,19,20
 251 711 251 711 255 711 c 0,21,22
 258 711 258 711 262 707 c 2,23,-1
 431 573 l 1,24,25
 437 570 437 570 437 565 c 0,0,1
575 25 m 0,26,27
 575 1 575 1 547 0 c 1,28,-1
 397 0 l 1,29,-1
 397 69 l 1,30,31
 351 -10 351 -10 257 -10 c 0,32,33
 165 -10 165 -10 129 74 c 0,34,35
 110 118 110 118 110 167 c 2,36,-1
 110 460 l 1,37,-1
 31 460 l 1,38,39
 2 462 2 462 2 485 c 256,40,41
 2 508 2 508 31 511 c 1,42,-1
 174 511 l 1,43,-1
 174 198 l 2,44,45
 174 138 174 138 183 110 c 0,46,47
 204 49 204 49 266 49 c 0,48,49
 361 49 361 49 388 147 c 0,50,51
 397 179 397 179 397 256 c 2,52,-1
 397 460 l 1,53,-1
 317 460 l 1,54,55
 289 462 289 462 289 485 c 256,56,57
 289 508 289 508 318 511 c 1,58,-1
 460 511 l 1,59,-1
 461 50 l 1,60,-1
 547 50 l 1,61,62
 575 48 575 48 575 25 c 0,26,27
EndSplineSet
Validated: 1
EndChar

StartChar: udieresis
Encoding: 252 252 109
Width: 591
Flags: W
LayerCount: 2
Fore
SplineSet
411 631 m 256,0,1
 411 613 411 613 398.5 600 c 128,-1,2
 386 587 386 587 368 587 c 256,3,4
 350 587 350 587 337 600 c 128,-1,5
 324 613 324 613 324 631 c 256,6,7
 324 649 324 649 337 662 c 128,-1,8
 350 675 350 675 368 675 c 256,9,10
 386 675 386 675 398.5 662 c 128,-1,11
 411 649 411 649 411 631 c 256,0,1
222 631 m 256,12,13
 222 613 222 613 209.5 600 c 128,-1,14
 197 587 197 587 179 587 c 0,15,16
 160 587 160 587 147.5 600 c 128,-1,17
 135 613 135 613 135 631 c 256,18,19
 135 649 135 649 147.5 662 c 128,-1,20
 160 675 160 675 179 675 c 0,21,22
 197 675 197 675 209.5 662 c 128,-1,23
 222 649 222 649 222 631 c 256,12,13
571 25 m 0,24,25
 571 1 571 1 543 0 c 1,26,-1
 393 0 l 1,27,-1
 393 69 l 1,28,29
 348 -10 348 -10 254 -10 c 0,30,31
 163 -10 163 -10 127 75 c 1,32,33
 110 118 110 118 110 169 c 2,34,-1
 110 460 l 1,35,-1
 31 460 l 1,36,37
 2 462 2 462 2 485 c 256,38,39
 2 508 2 508 31 511 c 1,40,-1
 174 511 l 1,41,-1
 174 198 l 2,42,43
 174 136 174 136 182 110 c 0,44,45
 202 49 202 49 264 49 c 0,46,47
 394 49 394 49 394 223 c 0,48,49
 394 234 394 234 394 245 c 0,50,51
 393 256 393 256 393 256 c 1,52,-1
 393 460 l 1,53,-1
 313 460 l 1,54,55
 285 462 285 462 285 485 c 256,56,57
 285 508 285 508 314 511 c 1,58,-1
 456 511 l 1,59,-1
 457 50 l 1,60,-1
 543 50 l 1,61,62
 571 48 571 48 571 25 c 0,24,25
EndSplineSet
Validated: 1
EndChar

StartChar: bullet
Encoding: 8226 8226 110
Width: 365
Flags: W
LayerCount: 2
Fore
SplineSet
290 279 m 256,0,1
 290 234 290 234 259 202.5 c 128,-1,2
 228 171 228 171 183 171 c 0,3,4
 139 171 139 171 107 202.5 c 128,-1,5
 75 234 75 234 75 279 c 256,6,7
 75 324 75 324 107 355.5 c 128,-1,8
 139 387 139 387 183 387 c 0,9,10
 228 387 228 387 259 355.5 c 128,-1,11
 290 324 290 324 290 279 c 256,0,1
EndSplineSet
Validated: 1
EndChar

StartChar: acute
Encoding: 180 180 111
Width: 489
Flags: W
LayerCount: 2
Fore
SplineSet
330 707 m 1,0,1
 338 711 338 711 346 711 c 0,2,3
 362 711 362 711 369 698 c 0,4,5
 373 691 373 691 373 685 c 0,6,7
 373 671 373 671 358 660 c 1,8,-1
 170 549 l 2,9,10
 162 545 162 545 154 545 c 0,11,12
 140 545 140 545 133 558 c 0,13,14
 129 564 129 564 129 571 c 0,15,16
 129 585 129 585 142 596 c 1,17,-1
 330 707 l 1,18,-1
 330 707 l 1,0,1
330 707 m 1,19,20
 338 711 338 711 346 711 c 0,21,22
 362 711 362 711 369 698 c 0,23,24
 373 691 373 691 373 685 c 0,25,26
 373 671 373 671 358 660 c 1,27,-1
 170 549 l 2,28,29
 162 545 162 545 154 545 c 0,30,31
 140 545 140 545 133 558 c 0,32,33
 129 564 129 564 129 571 c 0,34,35
 129 585 129 585 142 596 c 1,36,-1
 330 707 l 1,37,-1
 330 707 l 1,19,20
EndSplineSet
Validated: 5
EndChar

StartChar: guillemotleft
Encoding: 171 171 112
Width: 515
Flags: W
LayerCount: 2
Fore
SplineSet
419 513 m 1,0,1
 419 513 419 513 428 510 c 1,2,-1
 455 495 l 2,3,4
 464 490 464 490 464 485 c 0,5,6
 464 484 464 484 460 476 c 1,7,-1
 309 285 l 1,8,-1
 460 95 l 2,9,10
 465 89 465 89 465 86 c 0,11,12
 465 82 465 82 455 76 c 2,13,-1
 428 61 l 2,14,15
 423 58 423 58 419 58 c 0,16,17
 413 58 413 58 409 65 c 1,18,-1
 241 276 l 2,19,20
 236 281 236 281 236 285 c 0,21,22
 236 290 236 290 241 295 c 2,23,-1
 409 506 l 2,24,25
 415 513 415 513 419 513 c 1,0,1
213 513 m 1,26,27
 213 513 213 513 222 510 c 1,28,-1
 249 495 l 2,29,30
 258 490 258 490 258 485 c 0,31,32
 258 484 258 484 254 476 c 1,33,-1
 103 285 l 1,34,-1
 254 95 l 2,35,36
 259 89 259 89 259 86 c 0,37,38
 259 82 259 82 249 76 c 2,39,-1
 222 61 l 2,40,41
 217 58 217 58 213 58 c 0,42,43
 207 58 207 58 203 65 c 1,44,-1
 35 276 l 2,45,46
 30 281 30 281 30 285 c 0,47,48
 30 290 30 290 35 295 c 2,49,-1
 203 506 l 2,50,51
 209 513 209 513 213 513 c 1,26,27
EndSplineSet
Validated: 1
EndChar

StartChar: guillemotright
Encoding: 187 187 113
Width: 515
Flags: W
LayerCount: 2
Fore
SplineSet
485 285 m 0,0,1
 485 281 485 281 480 276 c 2,2,-1
 312 65 l 1,3,4
 308 58 308 58 302 58 c 0,5,6
 298 58 298 58 293 61 c 2,7,-1
 266 76 l 2,8,9
 256 82 256 82 256 86 c 0,10,11
 256 89 256 89 261 95 c 2,12,-1
 412 285 l 1,13,-1
 261 476 l 1,14,15
 257 484 257 484 257 485 c 0,16,17
 257 490 257 490 266 495 c 2,18,-1
 293 510 l 1,19,20
 302 513 302 513 302 513 c 1,21,22
 306 513 306 513 312 506 c 2,23,-1
 480 295 l 2,24,25
 485 290 485 290 485 285 c 0,0,1
279 285 m 0,26,27
 279 281 279 281 274 276 c 2,28,-1
 106 65 l 1,29,30
 102 58 102 58 96 58 c 0,31,32
 92 58 92 58 87 61 c 2,33,-1
 60 76 l 2,34,35
 50 82 50 82 50 86 c 0,36,37
 50 89 50 89 55 95 c 2,38,-1
 206 285 l 1,39,-1
 55 476 l 1,40,41
 51 484 51 484 51 485 c 0,42,43
 51 490 51 490 60 495 c 2,44,-1
 87 510 l 1,45,46
 96 513 96 513 96 513 c 1,47,48
 100 513 100 513 106 506 c 2,49,-1
 274 295 l 2,50,51
 279 290 279 290 279 285 c 0,26,27
EndSplineSet
Validated: 1
EndChar

StartChar: ellipsis
Encoding: 8230 8230 114
Width: 1018
Flags: W
LayerCount: 2
Fore
SplineSet
918 56 m 256,0,1
 918 31 918 31 900.5 13.5 c 128,-1,2
 883 -4 883 -4 858 -4 c 0,3,4
 834 -4 834 -4 816 13.5 c 128,-1,5
 798 31 798 31 798 56 c 256,6,7
 798 81 798 81 816 98.5 c 128,-1,8
 834 116 834 116 858 116 c 0,9,10
 883 116 883 116 900.5 98.5 c 128,-1,11
 918 81 918 81 918 56 c 256,0,1
569 56 m 256,12,13
 569 31 569 31 551.5 13.5 c 128,-1,14
 534 -4 534 -4 509 -4 c 256,15,16
 484 -4 484 -4 466.5 13.5 c 128,-1,17
 449 31 449 31 449 56 c 256,18,19
 449 81 449 81 466.5 98.5 c 128,-1,20
 484 116 484 116 509 116 c 256,21,22
 534 116 534 116 551.5 98.5 c 128,-1,23
 569 81 569 81 569 56 c 256,12,13
220 56 m 256,24,25
 220 31 220 31 202.5 13.5 c 128,-1,26
 185 -4 185 -4 160 -4 c 256,27,28
 135 -4 135 -4 117.5 13.5 c 128,-1,29
 100 31 100 31 100 56 c 256,30,31
 100 81 100 81 117.5 98.5 c 128,-1,32
 135 116 135 116 160 116 c 256,33,34
 185 116 185 116 202.5 98.5 c 128,-1,35
 220 81 220 81 220 56 c 256,24,25
EndSplineSet
Validated: 1
EndChar

StartChar: endash
Encoding: 8211 8211 116
Width: 500
Flags: W
LayerCount: 2
Fore
SplineSet
458 310 m 1,0,1
 486 306 486 306 486 282 c 0,2,3
 486 259 486 259 458 254 c 1,4,-1
 42 254 l 1,5,6
 14 259 14 259 14 282 c 0,7,8
 14 306 14 306 42 310 c 1,9,-1
 458 310 l 1,10,-1
 458 310 l 1,0,1
EndSplineSet
Validated: 5
EndChar

StartChar: emdash
Encoding: 8212 8212 117
Width: 1000
Flags: W
LayerCount: 2
Fore
SplineSet
901 310 m 1,0,1
 929 306 929 306 929 282 c 0,2,3
 929 259 929 259 901 254 c 1,4,-1
 93 254 l 1,5,6
 65 259 65 259 65 282 c 0,7,8
 65 306 65 306 93 310 c 1,9,-1
 901 310 l 1,10,-1
 901 310 l 1,0,1
EndSplineSet
Validated: 5
EndChar

StartChar: minus
Encoding: 173 173 118
AltUni2: 002212.ffffffff.0
Width: 399
Flags: W
LayerCount: 2
Fore
SplineSet
331 310 m 1,0,1
 359 306 359 306 359 282 c 0,2,3
 359 259 359 259 331 254 c 1,4,-1
 68 254 l 1,5,6
 40 259 40 259 40 282 c 0,7,8
 40 306 40 306 68 310 c 1,9,-1
 331 310 l 1,10,-1
 331 310 l 1,0,1
EndSplineSet
Validated: 5
EndChar

StartChar: quotesingle
Encoding: 39 39 119
Width: 233
Flags: W
LayerCount: 2
UndoRedoHistory
Layer: 1
Undoes
EndUndoes
Redoes
EndRedoes
EndUndoRedoHistory
Fore
SplineSet
87 688 m 5,0,-1
 145 688 l 5,1,-1
 139 525 l 6,2,3
 137 492 137 492 114 492 c 4,4,5
 93 492 93 492 92 525 c 6,6,-1
 87 688 l 5,0,-1
EndSplineSet
Validated: 1
EndChar

StartChar: quoteright
Encoding: 8217 8217 120
Width: 249
Flags: W
LayerCount: 2
UndoRedoHistory
Layer: 1
Undoes
EndUndoes
Redoes
EndRedoes
EndUndoRedoHistory
Fore
SplineSet
63 515 m 5,0,1
 101 540 101 540 119.5 568 c 132,-1,2
 138 596 138 596 138 640 c 5,3,4
 135 639 135 639 130 639 c 4,5,6
 109 639 109 639 93 652 c 132,-1,7
 77 665 77 665 77 689 c 4,8,9
 77 715 77 715 92 730 c 132,-1,10
 107 745 107 745 130 745 c 4,11,12
 159 745 159 745 176 721.5 c 132,-1,13
 193 698 193 698 193 654 c 4,14,15
 193 594 193 594 165.5 550.5 c 132,-1,16
 138 507 138 507 86 477 c 5,17,-1
 63 515 l 5,0,1
EndSplineSet
EndChar

StartChar: quoteleft
Encoding: 8216 8216 121
Width: 249
Flags: W
LayerCount: 2
UndoRedoHistory
Layer: 1
Undoes
EndUndoes
Redoes
EndRedoes
EndUndoRedoHistory
Fore
SplineSet
187 706 m 1,0,1
 149 681 149 681 130 653 c 128,-1,2
 111 625 111 625 111 582 c 1,3,4
 114 583 114 583 120 583 c 0,5,6
 140 583 140 583 156.5 570 c 128,-1,7
 173 557 173 557 173 532 c 0,8,9
 173 506 173 506 158 491.5 c 128,-1,10
 143 477 143 477 120 477 c 0,11,12
 90 477 90 477 73.5 500 c 128,-1,13
 57 523 57 523 57 567 c 0,14,15
 57 627 57 627 84 671 c 128,-1,16
 111 715 111 715 163 745 c 1,17,-1
 187 706 l 1,0,1
EndSplineSet
EndChar

StartChar: edieresis
Encoding: 235 235 122
Width: 489
Flags: W
LayerCount: 2
UndoRedoHistory
Layer: 1
Undoes
EndUndoes
Redoes
EndRedoes
EndUndoRedoHistory
Fore
SplineSet
379 631 m 256,0,1
 379 613 379 613 366.5 600 c 128,-1,2
 354 587 354 587 336 587 c 256,3,4
 318 587 318 587 305 600 c 128,-1,5
 292 613 292 613 292 631 c 256,6,7
 292 649 292 649 305 662 c 128,-1,8
 318 675 318 675 336 675 c 256,9,10
 354 675 354 675 366.5 662 c 128,-1,11
 379 649 379 649 379 631 c 256,0,1
190 631 m 256,12,13
 190 613 190 613 177.5 600 c 128,-1,14
 165 587 165 587 147 587 c 0,15,16
 128 587 128 587 115.5 600 c 128,-1,17
 103 613 103 613 103 631 c 256,18,19
 103 649 103 649 115.5 662 c 128,-1,20
 128 675 128 675 147 675 c 0,21,22
 165 675 165 675 177.5 662 c 128,-1,23
 190 649 190 649 190 631 c 256,12,13
439 256 m 1,24,-1
 116 256 l 1,25,26
 116 39 116 39 249 39 c 0,27,28
 359 39 359 39 376 145 c 1,29,30
 376 159 376 159 386 159 c 2,31,-1
 426 159 l 2,32,33
 434 159 434 159 434 147 c 1,34,35
 427 65 427 65 371 24 c 0,36,37
 324 -11 324 -11 250 -11 c 0,38,39
 154 -11 154 -11 101 63 c 0,40,41
 50 134 50 134 50 258 c 0,42,43
 50 391 50 391 120 464 c 0,44,45
 176 522 176 522 248 522 c 0,46,47
 318 522 318 522 367 475 c 0,48,49
 439 407 439 407 439 256 c 1,24,-1
373 310 m 1,50,51
 373 391 373 391 329 436 c 0,52,53
 295 472 295 472 254 472 c 0,54,55
 209 472 209 472 174 439 c 0,56,57
 129 396 129 396 119 310 c 1,58,-1
 373 310 l 1,50,51
EndSplineSet
EndChar

